%TF.GenerationSoftware,KiCad,Pcbnew,(5.1.10)-1*%
%TF.CreationDate,2023-05-11T15:26:33-07:00*%
%TF.ProjectId,CUBOTino2,4355424f-5469-46e6-9f32-2e6b69636164,rev?*%
%TF.SameCoordinates,Original*%
%TF.FileFunction,Copper,L1,Top*%
%TF.FilePolarity,Positive*%
%FSLAX46Y46*%
G04 Gerber Fmt 4.6, Leading zero omitted, Abs format (unit mm)*
G04 Created by KiCad (PCBNEW (5.1.10)-1) date 2023-05-11 15:26:33*
%MOMM*%
%LPD*%
G01*
G04 APERTURE LIST*
%TA.AperFunction,ComponentPad*%
%ADD10O,1.700000X2.000000*%
%TD*%
%TA.AperFunction,ComponentPad*%
%ADD11O,2.000000X1.700000*%
%TD*%
%TA.AperFunction,ComponentPad*%
%ADD12O,1.950000X1.700000*%
%TD*%
%TA.AperFunction,ComponentPad*%
%ADD13O,1.700000X1.700000*%
%TD*%
%TA.AperFunction,ComponentPad*%
%ADD14R,1.700000X1.700000*%
%TD*%
%TA.AperFunction,ComponentPad*%
%ADD15O,1.700000X1.950000*%
%TD*%
%TA.AperFunction,SMDPad,CuDef*%
%ADD16R,0.650000X1.060000*%
%TD*%
%TA.AperFunction,ComponentPad*%
%ADD17C,1.200000*%
%TD*%
%TA.AperFunction,ViaPad*%
%ADD18C,0.800000*%
%TD*%
%TA.AperFunction,Conductor*%
%ADD19C,0.500000*%
%TD*%
%TA.AperFunction,Conductor*%
%ADD20C,0.750000*%
%TD*%
%TA.AperFunction,Conductor*%
%ADD21C,0.250000*%
%TD*%
G04 APERTURE END LIST*
D10*
%TO.P,J6,2*%
%TO.N,GND*%
X153550000Y-86850000D03*
%TO.P,J6,1*%
%TO.N,+5VP*%
%TA.AperFunction,ComponentPad*%
G36*
G01*
X156900000Y-86100000D02*
X156900000Y-87600000D01*
G75*
G02*
X156650000Y-87850000I-250000J0D01*
G01*
X155450000Y-87850000D01*
G75*
G02*
X155200000Y-87600000I0J250000D01*
G01*
X155200000Y-86100000D01*
G75*
G02*
X155450000Y-85850000I250000J0D01*
G01*
X156650000Y-85850000D01*
G75*
G02*
X156900000Y-86100000I0J-250000D01*
G01*
G37*
%TD.AperFunction*%
%TD*%
%TO.P,J4,2*%
%TO.N,GND*%
X138600000Y-86900000D03*
%TO.P,J4,1*%
%TO.N,+5V*%
%TA.AperFunction,ComponentPad*%
G36*
G01*
X141950000Y-86150000D02*
X141950000Y-87650000D01*
G75*
G02*
X141700000Y-87900000I-250000J0D01*
G01*
X140500000Y-87900000D01*
G75*
G02*
X140250000Y-87650000I0J250000D01*
G01*
X140250000Y-86150000D01*
G75*
G02*
X140500000Y-85900000I250000J0D01*
G01*
X141700000Y-85900000D01*
G75*
G02*
X141950000Y-86150000I0J-250000D01*
G01*
G37*
%TD.AperFunction*%
%TD*%
D11*
%TO.P,J2,2*%
%TO.N,GND*%
X105950000Y-72500000D03*
%TO.P,J2,1*%
%TO.N,+3V3*%
%TA.AperFunction,ComponentPad*%
G36*
G01*
X105200000Y-69150000D02*
X106700000Y-69150000D01*
G75*
G02*
X106950000Y-69400000I0J-250000D01*
G01*
X106950000Y-70600000D01*
G75*
G02*
X106700000Y-70850000I-250000J0D01*
G01*
X105200000Y-70850000D01*
G75*
G02*
X104950000Y-70600000I0J250000D01*
G01*
X104950000Y-69400000D01*
G75*
G02*
X105200000Y-69150000I250000J0D01*
G01*
G37*
%TD.AperFunction*%
%TD*%
D12*
%TO.P,J3,6*%
%TO.N,SCLK*%
X113700000Y-82400000D03*
%TO.P,J3,5*%
%TO.N,MOSI*%
X113700000Y-79900000D03*
%TO.P,J3,4*%
%TO.N,RST*%
X113700000Y-77400000D03*
%TO.P,J3,3*%
%TO.N,REG_SEL*%
X113700000Y-74900000D03*
%TO.P,J3,2*%
%TO.N,CS*%
X113700000Y-72400000D03*
%TO.P,J3,1*%
%TO.N,BACK_LIGHT*%
%TA.AperFunction,ComponentPad*%
G36*
G01*
X112975000Y-69050000D02*
X114425000Y-69050000D01*
G75*
G02*
X114675000Y-69300000I0J-250000D01*
G01*
X114675000Y-70500000D01*
G75*
G02*
X114425000Y-70750000I-250000J0D01*
G01*
X112975000Y-70750000D01*
G75*
G02*
X112725000Y-70500000I0J250000D01*
G01*
X112725000Y-69300000D01*
G75*
G02*
X112975000Y-69050000I250000J0D01*
G01*
G37*
%TD.AperFunction*%
%TD*%
D13*
%TO.P,J8,3*%
%TO.N,PWM_TOP*%
X162800000Y-82080000D03*
%TO.P,J8,2*%
%TO.N,+5VP*%
X162800000Y-79540000D03*
D14*
%TO.P,J8,1*%
%TO.N,GND*%
X162800000Y-77000000D03*
%TD*%
D13*
%TO.P,J7,3*%
%TO.N,PWM_CUBE*%
X162800000Y-72980000D03*
%TO.P,J7,2*%
%TO.N,+5VP*%
X162800000Y-70440000D03*
D14*
%TO.P,J7,1*%
%TO.N,GND*%
X162800000Y-67900000D03*
%TD*%
D15*
%TO.P,J10,3*%
%TO.N,GND*%
X129050000Y-55300000D03*
%TO.P,J10,2*%
%TO.N,+3V3*%
X131550000Y-55300000D03*
%TO.P,J10,1*%
%TO.N,TOUCH*%
%TA.AperFunction,ComponentPad*%
G36*
G01*
X134900000Y-54575000D02*
X134900000Y-56025000D01*
G75*
G02*
X134650000Y-56275000I-250000J0D01*
G01*
X133450000Y-56275000D01*
G75*
G02*
X133200000Y-56025000I0J250000D01*
G01*
X133200000Y-54575000D01*
G75*
G02*
X133450000Y-54325000I250000J0D01*
G01*
X134650000Y-54325000D01*
G75*
G02*
X134900000Y-54575000I0J-250000D01*
G01*
G37*
%TD.AperFunction*%
%TD*%
%TO.P,J9,3*%
%TO.N,PWM_LED*%
X140500000Y-55300000D03*
%TO.P,J9,2*%
%TO.N,+5VP*%
X143000000Y-55300000D03*
%TO.P,J9,1*%
%TO.N,GND*%
%TA.AperFunction,ComponentPad*%
G36*
G01*
X146350000Y-54575000D02*
X146350000Y-56025000D01*
G75*
G02*
X146100000Y-56275000I-250000J0D01*
G01*
X144900000Y-56275000D01*
G75*
G02*
X144650000Y-56025000I0J250000D01*
G01*
X144650000Y-54575000D01*
G75*
G02*
X144900000Y-54325000I250000J0D01*
G01*
X146100000Y-54325000D01*
G75*
G02*
X146350000Y-54575000I0J-250000D01*
G01*
G37*
%TD.AperFunction*%
%TD*%
D16*
%TO.P,U1,5*%
%TO.N,+3V3*%
X106950000Y-56700000D03*
%TO.P,U1,4*%
%TO.N,Net-(C3-Pad1)*%
X108850000Y-56700000D03*
%TO.P,U1,3*%
%TO.N,+5V*%
X108850000Y-58900000D03*
%TO.P,U1,2*%
%TO.N,GND*%
X107900000Y-58900000D03*
%TO.P,U1,1*%
%TO.N,+5V*%
X106950000Y-58900000D03*
%TD*%
%TO.P,C3,2*%
%TO.N,GND*%
%TA.AperFunction,SMDPad,CuDef*%
G36*
G01*
X110625000Y-58250000D02*
X111575000Y-58250000D01*
G75*
G02*
X111825000Y-58500000I0J-250000D01*
G01*
X111825000Y-59175000D01*
G75*
G02*
X111575000Y-59425000I-250000J0D01*
G01*
X110625000Y-59425000D01*
G75*
G02*
X110375000Y-59175000I0J250000D01*
G01*
X110375000Y-58500000D01*
G75*
G02*
X110625000Y-58250000I250000J0D01*
G01*
G37*
%TD.AperFunction*%
%TO.P,C3,1*%
%TO.N,Net-(C3-Pad1)*%
%TA.AperFunction,SMDPad,CuDef*%
G36*
G01*
X110625000Y-56175000D02*
X111575000Y-56175000D01*
G75*
G02*
X111825000Y-56425000I0J-250000D01*
G01*
X111825000Y-57100000D01*
G75*
G02*
X111575000Y-57350000I-250000J0D01*
G01*
X110625000Y-57350000D01*
G75*
G02*
X110375000Y-57100000I0J250000D01*
G01*
X110375000Y-56425000D01*
G75*
G02*
X110625000Y-56175000I250000J0D01*
G01*
G37*
%TD.AperFunction*%
%TD*%
%TO.P,R3,2*%
%TO.N,+3V3*%
%TA.AperFunction,SMDPad,CuDef*%
G36*
G01*
X131100000Y-59550001D02*
X131100000Y-58649999D01*
G75*
G02*
X131349999Y-58400000I249999J0D01*
G01*
X132050001Y-58400000D01*
G75*
G02*
X132300000Y-58649999I0J-249999D01*
G01*
X132300000Y-59550001D01*
G75*
G02*
X132050001Y-59800000I-249999J0D01*
G01*
X131349999Y-59800000D01*
G75*
G02*
X131100000Y-59550001I0J249999D01*
G01*
G37*
%TD.AperFunction*%
%TO.P,R3,1*%
%TO.N,Net-(D3-Pad2)*%
%TA.AperFunction,SMDPad,CuDef*%
G36*
G01*
X129100000Y-59550001D02*
X129100000Y-58649999D01*
G75*
G02*
X129349999Y-58400000I249999J0D01*
G01*
X130050001Y-58400000D01*
G75*
G02*
X130300000Y-58649999I0J-249999D01*
G01*
X130300000Y-59550001D01*
G75*
G02*
X130050001Y-59800000I-249999J0D01*
G01*
X129349999Y-59800000D01*
G75*
G02*
X129100000Y-59550001I0J249999D01*
G01*
G37*
%TD.AperFunction*%
%TD*%
%TO.P,R1,2*%
%TO.N,+5V*%
%TA.AperFunction,SMDPad,CuDef*%
G36*
G01*
X145499999Y-84250000D02*
X146400001Y-84250000D01*
G75*
G02*
X146650000Y-84499999I0J-249999D01*
G01*
X146650000Y-85200001D01*
G75*
G02*
X146400001Y-85450000I-249999J0D01*
G01*
X145499999Y-85450000D01*
G75*
G02*
X145250000Y-85200001I0J249999D01*
G01*
X145250000Y-84499999D01*
G75*
G02*
X145499999Y-84250000I249999J0D01*
G01*
G37*
%TD.AperFunction*%
%TO.P,R1,1*%
%TO.N,Net-(D1-Pad2)*%
%TA.AperFunction,SMDPad,CuDef*%
G36*
G01*
X145499999Y-82250000D02*
X146400001Y-82250000D01*
G75*
G02*
X146650000Y-82499999I0J-249999D01*
G01*
X146650000Y-83200001D01*
G75*
G02*
X146400001Y-83450000I-249999J0D01*
G01*
X145499999Y-83450000D01*
G75*
G02*
X145250000Y-83200001I0J249999D01*
G01*
X145250000Y-82499999D01*
G75*
G02*
X145499999Y-82250000I249999J0D01*
G01*
G37*
%TD.AperFunction*%
%TD*%
%TO.P,D3,2*%
%TO.N,Net-(D3-Pad2)*%
%TA.AperFunction,SMDPad,CuDef*%
G36*
G01*
X127250000Y-59550001D02*
X127250000Y-58649999D01*
G75*
G02*
X127499999Y-58400000I249999J0D01*
G01*
X128150001Y-58400000D01*
G75*
G02*
X128400000Y-58649999I0J-249999D01*
G01*
X128400000Y-59550001D01*
G75*
G02*
X128150001Y-59800000I-249999J0D01*
G01*
X127499999Y-59800000D01*
G75*
G02*
X127250000Y-59550001I0J249999D01*
G01*
G37*
%TD.AperFunction*%
%TO.P,D3,1*%
%TO.N,GND*%
%TA.AperFunction,SMDPad,CuDef*%
G36*
G01*
X125200000Y-59550001D02*
X125200000Y-58649999D01*
G75*
G02*
X125449999Y-58400000I249999J0D01*
G01*
X126100001Y-58400000D01*
G75*
G02*
X126350000Y-58649999I0J-249999D01*
G01*
X126350000Y-59550001D01*
G75*
G02*
X126100001Y-59800000I-249999J0D01*
G01*
X125449999Y-59800000D01*
G75*
G02*
X125200000Y-59550001I0J249999D01*
G01*
G37*
%TD.AperFunction*%
%TD*%
%TO.P,D1,2*%
%TO.N,Net-(D1-Pad2)*%
%TA.AperFunction,SMDPad,CuDef*%
G36*
G01*
X142900000Y-81900001D02*
X142900000Y-80999999D01*
G75*
G02*
X143149999Y-80750000I249999J0D01*
G01*
X143800001Y-80750000D01*
G75*
G02*
X144050000Y-80999999I0J-249999D01*
G01*
X144050000Y-81900001D01*
G75*
G02*
X143800001Y-82150000I-249999J0D01*
G01*
X143149999Y-82150000D01*
G75*
G02*
X142900000Y-81900001I0J249999D01*
G01*
G37*
%TD.AperFunction*%
%TO.P,D1,1*%
%TO.N,GND*%
%TA.AperFunction,SMDPad,CuDef*%
G36*
G01*
X140850000Y-81900001D02*
X140850000Y-80999999D01*
G75*
G02*
X141099999Y-80750000I249999J0D01*
G01*
X141750001Y-80750000D01*
G75*
G02*
X142000000Y-80999999I0J-249999D01*
G01*
X142000000Y-81900001D01*
G75*
G02*
X141750001Y-82150000I-249999J0D01*
G01*
X141099999Y-82150000D01*
G75*
G02*
X140850000Y-81900001I0J249999D01*
G01*
G37*
%TD.AperFunction*%
%TD*%
D17*
%TO.P,C7,2*%
%TO.N,GND*%
X157700000Y-68700000D03*
%TO.P,C7,1*%
%TO.N,+5VP*%
X157700000Y-70700000D03*
%TD*%
%TO.P,C6,2*%
%TO.N,GND*%
X157600000Y-77800000D03*
%TO.P,C6,1*%
%TO.N,+5VP*%
X157600000Y-79800000D03*
%TD*%
%TO.P,C1,2*%
%TO.N,GND*%
X105900000Y-80800000D03*
%TO.P,C1,1*%
%TO.N,+5V*%
X103900000Y-80800000D03*
%TD*%
%TO.P,C5,2*%
%TO.N,GND*%
%TA.AperFunction,SMDPad,CuDef*%
G36*
G01*
X113049998Y-58200000D02*
X114350002Y-58200000D01*
G75*
G02*
X114600000Y-58449998I0J-249998D01*
G01*
X114600000Y-59275002D01*
G75*
G02*
X114350002Y-59525000I-249998J0D01*
G01*
X113049998Y-59525000D01*
G75*
G02*
X112800000Y-59275002I0J249998D01*
G01*
X112800000Y-58449998D01*
G75*
G02*
X113049998Y-58200000I249998J0D01*
G01*
G37*
%TD.AperFunction*%
%TO.P,C5,1*%
%TO.N,+3V3*%
%TA.AperFunction,SMDPad,CuDef*%
G36*
G01*
X113049998Y-55075000D02*
X114350002Y-55075000D01*
G75*
G02*
X114600000Y-55324998I0J-249998D01*
G01*
X114600000Y-56150002D01*
G75*
G02*
X114350002Y-56400000I-249998J0D01*
G01*
X113049998Y-56400000D01*
G75*
G02*
X112800000Y-56150002I0J249998D01*
G01*
X112800000Y-55324998D01*
G75*
G02*
X113049998Y-55075000I249998J0D01*
G01*
G37*
%TD.AperFunction*%
%TD*%
%TO.P,R2,2*%
%TO.N,Net-(J1-Pad8)*%
%TA.AperFunction,SMDPad,CuDef*%
G36*
G01*
X116049999Y-57000000D02*
X116950001Y-57000000D01*
G75*
G02*
X117200000Y-57249999I0J-249999D01*
G01*
X117200000Y-57950001D01*
G75*
G02*
X116950001Y-58200000I-249999J0D01*
G01*
X116049999Y-58200000D01*
G75*
G02*
X115800000Y-57950001I0J249999D01*
G01*
X115800000Y-57249999D01*
G75*
G02*
X116049999Y-57000000I249999J0D01*
G01*
G37*
%TD.AperFunction*%
%TO.P,R2,1*%
%TO.N,Net-(D2-Pad2)*%
%TA.AperFunction,SMDPad,CuDef*%
G36*
G01*
X116049999Y-55000000D02*
X116950001Y-55000000D01*
G75*
G02*
X117200000Y-55249999I0J-249999D01*
G01*
X117200000Y-55950001D01*
G75*
G02*
X116950001Y-56200000I-249999J0D01*
G01*
X116049999Y-56200000D01*
G75*
G02*
X115800000Y-55950001I0J249999D01*
G01*
X115800000Y-55249999D01*
G75*
G02*
X116049999Y-55000000I249999J0D01*
G01*
G37*
%TD.AperFunction*%
%TD*%
D13*
%TO.P,J5,2*%
%TO.N,+5VP*%
X148590000Y-87950000D03*
D14*
%TO.P,J5,1*%
%TO.N,+5V*%
X146050000Y-87950000D03*
%TD*%
D13*
%TO.P,J1,40*%
%TO.N,Net-(J1-Pad40)*%
X157130000Y-62230000D03*
%TO.P,J1,39*%
%TO.N,GND*%
X157130000Y-64770000D03*
%TO.P,J1,38*%
%TO.N,Net-(J1-Pad38)*%
X154590000Y-62230000D03*
%TO.P,J1,37*%
%TO.N,TOUCH*%
X154590000Y-64770000D03*
%TO.P,J1,36*%
%TO.N,Net-(J1-Pad36)*%
X152050000Y-62230000D03*
%TO.P,J1,35*%
%TO.N,Net-(J1-Pad35)*%
X152050000Y-64770000D03*
%TO.P,J1,34*%
%TO.N,GND*%
X149510000Y-62230000D03*
%TO.P,J1,33*%
%TO.N,PWM_CUBE*%
X149510000Y-64770000D03*
%TO.P,J1,32*%
%TO.N,PWM_TOP*%
X146970000Y-62230000D03*
%TO.P,J1,31*%
%TO.N,Net-(J1-Pad31)*%
X146970000Y-64770000D03*
%TO.P,J1,30*%
%TO.N,GND*%
X144430000Y-62230000D03*
%TO.P,J1,29*%
%TO.N,Net-(J1-Pad29)*%
X144430000Y-64770000D03*
%TO.P,J1,28*%
%TO.N,Net-(J1-Pad28)*%
X141890000Y-62230000D03*
%TO.P,J1,27*%
%TO.N,Net-(J1-Pad27)*%
X141890000Y-64770000D03*
%TO.P,J1,26*%
%TO.N,Net-(J1-Pad26)*%
X139350000Y-62230000D03*
%TO.P,J1,25*%
%TO.N,GND*%
X139350000Y-64770000D03*
%TO.P,J1,24*%
%TO.N,CS*%
X136810000Y-62230000D03*
%TO.P,J1,23*%
%TO.N,SCLK*%
X136810000Y-64770000D03*
%TO.P,J1,22*%
%TO.N,Net-(J1-Pad22)*%
X134270000Y-62230000D03*
%TO.P,J1,21*%
%TO.N,Net-(J1-Pad21)*%
X134270000Y-64770000D03*
%TO.P,J1,20*%
%TO.N,GND*%
X131730000Y-62230000D03*
%TO.P,J1,19*%
%TO.N,MOSI*%
X131730000Y-64770000D03*
%TO.P,J1,18*%
%TO.N,Net-(J1-Pad18)*%
X129190000Y-62230000D03*
%TO.P,J1,17*%
%TO.N,Net-(J1-Pad17)*%
X129190000Y-64770000D03*
%TO.P,J1,16*%
%TO.N,Net-(J1-Pad16)*%
X126650000Y-62230000D03*
%TO.P,J1,15*%
%TO.N,RST*%
X126650000Y-64770000D03*
%TO.P,J1,14*%
%TO.N,GND*%
X124110000Y-62230000D03*
%TO.P,J1,13*%
%TO.N,REG_SEL*%
X124110000Y-64770000D03*
%TO.P,J1,12*%
%TO.N,PWM_LED*%
X121570000Y-62230000D03*
%TO.P,J1,11*%
%TO.N,Net-(J1-Pad11)*%
X121570000Y-64770000D03*
%TO.P,J1,10*%
%TO.N,Net-(J1-Pad10)*%
X119030000Y-62230000D03*
%TO.P,J1,9*%
%TO.N,GND*%
X119030000Y-64770000D03*
%TO.P,J1,8*%
%TO.N,Net-(J1-Pad8)*%
X116490000Y-62230000D03*
%TO.P,J1,7*%
%TO.N,BACK_LIGHT*%
X116490000Y-64770000D03*
%TO.P,J1,6*%
%TO.N,GND*%
X113950000Y-62230000D03*
%TO.P,J1,5*%
%TO.N,Net-(J1-Pad5)*%
X113950000Y-64770000D03*
%TO.P,J1,4*%
%TO.N,+5V*%
X111410000Y-62230000D03*
%TO.P,J1,3*%
%TO.N,Net-(J1-Pad3)*%
X111410000Y-64770000D03*
%TO.P,J1,2*%
%TO.N,+5V*%
X108870000Y-62230000D03*
D14*
%TO.P,J1,1*%
%TO.N,Net-(J1-Pad1)*%
X108870000Y-64770000D03*
%TD*%
%TO.P,D2,2*%
%TO.N,Net-(D2-Pad2)*%
%TA.AperFunction,SMDPad,CuDef*%
G36*
G01*
X119925000Y-56375000D02*
X118675000Y-56375000D01*
G75*
G02*
X118425000Y-56125000I0J250000D01*
G01*
X118425000Y-55200000D01*
G75*
G02*
X118675000Y-54950000I250000J0D01*
G01*
X119925000Y-54950000D01*
G75*
G02*
X120175000Y-55200000I0J-250000D01*
G01*
X120175000Y-56125000D01*
G75*
G02*
X119925000Y-56375000I-250000J0D01*
G01*
G37*
%TD.AperFunction*%
%TO.P,D2,1*%
%TO.N,GND*%
%TA.AperFunction,SMDPad,CuDef*%
G36*
G01*
X119925000Y-59350000D02*
X118675000Y-59350000D01*
G75*
G02*
X118425000Y-59100000I0J250000D01*
G01*
X118425000Y-58175000D01*
G75*
G02*
X118675000Y-57925000I250000J0D01*
G01*
X119925000Y-57925000D01*
G75*
G02*
X120175000Y-58175000I0J-250000D01*
G01*
X120175000Y-59100000D01*
G75*
G02*
X119925000Y-59350000I-250000J0D01*
G01*
G37*
%TD.AperFunction*%
%TD*%
D18*
%TO.N,GND*%
X107925000Y-60300000D03*
%TO.N,TOUCH*%
X139062653Y-59462653D03*
X137800000Y-58200000D03*
%TD*%
D19*
%TO.N,GND*%
X107900000Y-60275000D02*
X107925000Y-60300000D01*
X107900000Y-58900000D02*
X107900000Y-60275000D01*
X111100000Y-59380000D02*
X113950000Y-62230000D01*
X111100000Y-58837500D02*
X111100000Y-59380000D01*
X105637500Y-72187500D02*
X105950000Y-72500000D01*
X113700000Y-61980000D02*
X113950000Y-62230000D01*
X113700000Y-58862500D02*
X113700000Y-61980000D01*
X141425000Y-81450000D02*
X139950000Y-81450000D01*
X138600000Y-82800000D02*
X138600000Y-86900000D01*
X139950000Y-81450000D02*
X138600000Y-82800000D01*
X119300000Y-58637500D02*
X120112500Y-58637500D01*
X123450000Y-55300000D02*
X129050000Y-55300000D01*
X120112500Y-58637500D02*
X123450000Y-55300000D01*
X125775000Y-58575000D02*
X129050000Y-55300000D01*
X125775000Y-59100000D02*
X125775000Y-58575000D01*
D20*
%TO.N,+5V*%
X108850000Y-62210000D02*
X108870000Y-62230000D01*
D21*
X108850000Y-58900000D02*
X108850000Y-62210000D01*
D20*
X106950000Y-58900000D02*
X106950000Y-62050000D01*
X107130000Y-62230000D02*
X108870000Y-62230000D01*
X106950000Y-62050000D02*
X107130000Y-62230000D01*
X141100000Y-86900000D02*
X141150000Y-86900000D01*
X142200000Y-87950000D02*
X146050000Y-87950000D01*
X141150000Y-86900000D02*
X142200000Y-87950000D01*
X140400000Y-88950000D02*
X141100000Y-88250000D01*
X110950000Y-88950000D02*
X140400000Y-88950000D01*
X103900000Y-81900000D02*
X110950000Y-88950000D01*
X141100000Y-88250000D02*
X141100000Y-86900000D01*
X103900000Y-80800000D02*
X103900000Y-81900000D01*
X146050000Y-84950000D02*
X145950000Y-84850000D01*
D21*
X146050000Y-87950000D02*
X146050000Y-84950000D01*
D20*
%TO.N,+5VP*%
X143000000Y-55300000D02*
X143000000Y-56900000D01*
X143000000Y-56900000D02*
X144200000Y-58100000D01*
X144200000Y-58100000D02*
X162500000Y-58100000D01*
X162500000Y-58100000D02*
X165700000Y-61300000D01*
X165700000Y-61300000D02*
X165700000Y-69000000D01*
X165700000Y-69000000D02*
X164260000Y-70440000D01*
X162800000Y-79540000D02*
X164660000Y-79540000D01*
X164660000Y-79540000D02*
X165500000Y-78700000D01*
X165500000Y-72280000D02*
X163660000Y-70440000D01*
X165500000Y-78700000D02*
X165500000Y-72280000D01*
X163660000Y-70440000D02*
X162800000Y-70440000D01*
X164260000Y-70440000D02*
X163660000Y-70440000D01*
X162540000Y-79800000D02*
X162800000Y-79540000D01*
X157600000Y-79800000D02*
X162540000Y-79800000D01*
X162540000Y-70700000D02*
X162800000Y-70440000D01*
X157700000Y-70700000D02*
X162540000Y-70700000D01*
X148590000Y-87950000D02*
X149440000Y-88800000D01*
X149440000Y-88800000D02*
X155600000Y-88800000D01*
X156050000Y-88350000D02*
X156050000Y-86850000D01*
X155600000Y-88800000D02*
X156050000Y-88350000D01*
D21*
%TO.N,Net-(D1-Pad2)*%
X144875000Y-82850000D02*
X143475000Y-81450000D01*
X145950000Y-82850000D02*
X144875000Y-82850000D01*
%TO.N,BACK_LIGHT*%
X116490000Y-64770000D02*
X113900000Y-67360000D01*
X113900000Y-69700000D02*
X113700000Y-69900000D01*
X113900000Y-67360000D02*
X113900000Y-69700000D01*
%TO.N,CS*%
X117700000Y-63900000D02*
X117700000Y-65800000D01*
X118100000Y-63500000D02*
X117700000Y-63900000D01*
X135540000Y-63500000D02*
X118100000Y-63500000D01*
X136810000Y-62230000D02*
X135540000Y-63500000D01*
X117700000Y-65800000D02*
X115600000Y-67900000D01*
X115600000Y-67900000D02*
X115600000Y-71200000D01*
X114400000Y-72400000D02*
X113700000Y-72400000D01*
X115600000Y-71200000D02*
X114400000Y-72400000D01*
%TO.N,REG_SEL*%
X122580000Y-66300000D02*
X118100000Y-66300000D01*
X124110000Y-64770000D02*
X122580000Y-66300000D01*
X118100000Y-66300000D02*
X116400000Y-68000000D01*
X116400000Y-72200000D02*
X113700000Y-74900000D01*
X116400000Y-68000000D02*
X116400000Y-72200000D01*
%TO.N,RST*%
X117000000Y-74100000D02*
X113700000Y-77400000D01*
X117000000Y-68200000D02*
X117000000Y-74100000D01*
X118300000Y-66900000D02*
X117000000Y-68200000D01*
X124520000Y-66900000D02*
X118300000Y-66900000D01*
X126650000Y-64770000D02*
X124520000Y-66900000D01*
%TO.N,MOSI*%
X117900000Y-75700000D02*
X113700000Y-79900000D01*
X117900000Y-68200000D02*
X117900000Y-75700000D01*
X118400000Y-67700000D02*
X117900000Y-68200000D01*
X128800000Y-67700000D02*
X118400000Y-67700000D01*
X131730000Y-64770000D02*
X128800000Y-67700000D01*
%TO.N,SCLK*%
X132980000Y-68600000D02*
X119500000Y-68600000D01*
X136810000Y-64770000D02*
X132980000Y-68600000D01*
X119500000Y-68600000D02*
X118700000Y-69400000D01*
X118700000Y-77400000D02*
X113700000Y-82400000D01*
X118700000Y-69400000D02*
X118700000Y-77400000D01*
D19*
%TO.N,+3V3*%
X131700000Y-55050000D02*
X131700000Y-59100000D01*
X106950000Y-56700000D02*
X106250000Y-56700000D01*
X106250000Y-56700000D02*
X101500000Y-61450000D01*
X101500000Y-68562500D02*
X103050000Y-70112500D01*
X101500000Y-61450000D02*
X101500000Y-68562500D01*
X105837500Y-70112500D02*
X105950000Y-70000000D01*
X103050000Y-70112500D02*
X105837500Y-70112500D01*
X106950000Y-56700000D02*
X106950000Y-56150000D01*
X106950000Y-56150000D02*
X108450000Y-54650000D01*
X112612500Y-54650000D02*
X113700000Y-55737500D01*
X108450000Y-54650000D02*
X112612500Y-54650000D01*
X131550000Y-54000000D02*
X131550000Y-55300000D01*
X130700000Y-53150000D02*
X131550000Y-54000000D01*
X115750000Y-53150000D02*
X130700000Y-53150000D01*
X113700000Y-55200000D02*
X115750000Y-53150000D01*
X113700000Y-55737500D02*
X113700000Y-55200000D01*
D21*
%TO.N,PWM_LED*%
X136700000Y-60500000D02*
X140500000Y-56700000D01*
X122200000Y-60500000D02*
X136700000Y-60500000D01*
X140500000Y-56700000D02*
X140500000Y-55300000D01*
X121570000Y-61130000D02*
X122200000Y-60500000D01*
X121570000Y-62230000D02*
X121570000Y-61130000D01*
%TO.N,PWM_TOP*%
X152680000Y-82080000D02*
X162800000Y-82080000D01*
X148250000Y-77650000D02*
X152680000Y-82080000D01*
X148250000Y-63510000D02*
X148250000Y-77650000D01*
X146970000Y-62230000D02*
X148250000Y-63510000D01*
%TO.N,PWM_CUBE*%
X149510000Y-64770000D02*
X149510000Y-67210000D01*
X155280000Y-72980000D02*
X162800000Y-72980000D01*
X149510000Y-67210000D02*
X155280000Y-72980000D01*
%TO.N,Net-(D2-Pad2)*%
X119237500Y-55600000D02*
X119300000Y-55662500D01*
X116500000Y-55600000D02*
X119237500Y-55600000D01*
%TO.N,Net-(D3-Pad2)*%
X127825000Y-59100000D02*
X129700000Y-59100000D01*
%TO.N,TOUCH*%
X152462653Y-59462653D02*
X139062653Y-59462653D01*
X153300000Y-60300000D02*
X152462653Y-59462653D01*
X153300000Y-63480000D02*
X153300000Y-60300000D01*
X154590000Y-64770000D02*
X153300000Y-63480000D01*
X136950000Y-58200000D02*
X134050000Y-55300000D01*
X137800000Y-58200000D02*
X136950000Y-58200000D01*
%TO.N,Net-(C3-Pad1)*%
X111037500Y-56700000D02*
X111100000Y-56762500D01*
X108850000Y-56700000D02*
X111037500Y-56700000D01*
%TO.N,Net-(J1-Pad8)*%
X116490000Y-57610000D02*
X116500000Y-57600000D01*
X116490000Y-62230000D02*
X116490000Y-57610000D01*
%TD*%
M02*
