%TF.GenerationSoftware,KiCad,Pcbnew,(5.1.10)-1*%
%TF.CreationDate,2023-05-11T15:26:33-07:00*%
%TF.ProjectId,CUBOTino2,4355424f-5469-46e6-9f32-2e6b69636164,rev?*%
%TF.SameCoordinates,Original*%
%TF.FileFunction,Legend,Bot*%
%TF.FilePolarity,Positive*%
%FSLAX46Y46*%
G04 Gerber Fmt 4.6, Leading zero omitted, Abs format (unit mm)*
G04 Created by KiCad (PCBNEW (5.1.10)-1) date 2023-05-11 15:26:33*
%MOMM*%
%LPD*%
G01*
G04 APERTURE LIST*
%ADD10C,0.150000*%
%ADD11C,0.120000*%
G04 APERTURE END LIST*
D10*
X153935714Y-88921428D02*
X153173809Y-88921428D01*
X153554761Y-89302380D02*
X153554761Y-88540476D01*
X152221428Y-88302380D02*
X152697619Y-88302380D01*
X152745238Y-88778571D01*
X152697619Y-88730952D01*
X152602380Y-88683333D01*
X152364285Y-88683333D01*
X152269047Y-88730952D01*
X152221428Y-88778571D01*
X152173809Y-88873809D01*
X152173809Y-89111904D01*
X152221428Y-89207142D01*
X152269047Y-89254761D01*
X152364285Y-89302380D01*
X152602380Y-89302380D01*
X152697619Y-89254761D01*
X152745238Y-89207142D01*
X151888095Y-88302380D02*
X151554761Y-89302380D01*
X151221428Y-88302380D01*
X150888095Y-89302380D02*
X150888095Y-88302380D01*
X150507142Y-88302380D01*
X150411904Y-88350000D01*
X150364285Y-88397619D01*
X150316666Y-88492857D01*
X150316666Y-88635714D01*
X150364285Y-88730952D01*
X150411904Y-88778571D01*
X150507142Y-88826190D01*
X150888095Y-88826190D01*
X144435714Y-88821428D02*
X143673809Y-88821428D01*
X144054761Y-89202380D02*
X144054761Y-88440476D01*
X142721428Y-88202380D02*
X143197619Y-88202380D01*
X143245238Y-88678571D01*
X143197619Y-88630952D01*
X143102380Y-88583333D01*
X142864285Y-88583333D01*
X142769047Y-88630952D01*
X142721428Y-88678571D01*
X142673809Y-88773809D01*
X142673809Y-89011904D01*
X142721428Y-89107142D01*
X142769047Y-89154761D01*
X142864285Y-89202380D01*
X143102380Y-89202380D01*
X143197619Y-89154761D01*
X143245238Y-89107142D01*
X142388095Y-88202380D02*
X142054761Y-89202380D01*
X141721428Y-88202380D01*
X147121428Y-59625000D02*
X147192857Y-59589285D01*
X147300000Y-59589285D01*
X147407142Y-59625000D01*
X147478571Y-59696428D01*
X147514285Y-59767857D01*
X147550000Y-59910714D01*
X147550000Y-60017857D01*
X147514285Y-60160714D01*
X147478571Y-60232142D01*
X147407142Y-60303571D01*
X147300000Y-60339285D01*
X147228571Y-60339285D01*
X147121428Y-60303571D01*
X147085714Y-60267857D01*
X147085714Y-60017857D01*
X147228571Y-60017857D01*
X146764285Y-60339285D02*
X146764285Y-59589285D01*
X146335714Y-60339285D01*
X146335714Y-59589285D01*
X145978571Y-60339285D02*
X145978571Y-59589285D01*
X145800000Y-59589285D01*
X145692857Y-59625000D01*
X145621428Y-59696428D01*
X145585714Y-59767857D01*
X145550000Y-59910714D01*
X145550000Y-60017857D01*
X145585714Y-60160714D01*
X145621428Y-60232142D01*
X145692857Y-60303571D01*
X145800000Y-60339285D01*
X145978571Y-60339285D01*
X144589285Y-60053571D02*
X144017857Y-60053571D01*
X144303571Y-60339285D02*
X144303571Y-59767857D01*
X143303571Y-59589285D02*
X143660714Y-59589285D01*
X143696428Y-59946428D01*
X143660714Y-59910714D01*
X143589285Y-59875000D01*
X143410714Y-59875000D01*
X143339285Y-59910714D01*
X143303571Y-59946428D01*
X143267857Y-60017857D01*
X143267857Y-60196428D01*
X143303571Y-60267857D01*
X143339285Y-60303571D01*
X143410714Y-60339285D01*
X143589285Y-60339285D01*
X143660714Y-60303571D01*
X143696428Y-60267857D01*
X143053571Y-59589285D02*
X142803571Y-60339285D01*
X142553571Y-59589285D01*
X142303571Y-60339285D02*
X142303571Y-59589285D01*
X142017857Y-59589285D01*
X141946428Y-59625000D01*
X141910714Y-59660714D01*
X141875000Y-59732142D01*
X141875000Y-59839285D01*
X141910714Y-59910714D01*
X141946428Y-59946428D01*
X142017857Y-59982142D01*
X142303571Y-59982142D01*
X140553571Y-60339285D02*
X140553571Y-59589285D01*
X140267857Y-59589285D01*
X140196428Y-59625000D01*
X140160714Y-59660714D01*
X140125000Y-59732142D01*
X140125000Y-59839285D01*
X140160714Y-59910714D01*
X140196428Y-59946428D01*
X140267857Y-59982142D01*
X140553571Y-59982142D01*
X139875000Y-59589285D02*
X139696428Y-60339285D01*
X139553571Y-59803571D01*
X139410714Y-60339285D01*
X139232142Y-59589285D01*
X138946428Y-60339285D02*
X138946428Y-59589285D01*
X138696428Y-60125000D01*
X138446428Y-59589285D01*
X138446428Y-60339285D01*
X128371428Y-59625000D02*
X128442857Y-59589285D01*
X128550000Y-59589285D01*
X128657142Y-59625000D01*
X128728571Y-59696428D01*
X128764285Y-59767857D01*
X128800000Y-59910714D01*
X128800000Y-60017857D01*
X128764285Y-60160714D01*
X128728571Y-60232142D01*
X128657142Y-60303571D01*
X128550000Y-60339285D01*
X128478571Y-60339285D01*
X128371428Y-60303571D01*
X128335714Y-60267857D01*
X128335714Y-60017857D01*
X128478571Y-60017857D01*
X128014285Y-60339285D02*
X128014285Y-59589285D01*
X127585714Y-60339285D01*
X127585714Y-59589285D01*
X127228571Y-60339285D02*
X127228571Y-59589285D01*
X127050000Y-59589285D01*
X126942857Y-59625000D01*
X126871428Y-59696428D01*
X126835714Y-59767857D01*
X126800000Y-59910714D01*
X126800000Y-60017857D01*
X126835714Y-60160714D01*
X126871428Y-60232142D01*
X126942857Y-60303571D01*
X127050000Y-60339285D01*
X127228571Y-60339285D01*
X133200000Y-60053571D02*
X132628571Y-60053571D01*
X132914285Y-60339285D02*
X132914285Y-59767857D01*
X132342857Y-59589285D02*
X131878571Y-59589285D01*
X132128571Y-59875000D01*
X132021428Y-59875000D01*
X131950000Y-59910714D01*
X131914285Y-59946428D01*
X131878571Y-60017857D01*
X131878571Y-60196428D01*
X131914285Y-60267857D01*
X131950000Y-60303571D01*
X132021428Y-60339285D01*
X132235714Y-60339285D01*
X132307142Y-60303571D01*
X132342857Y-60267857D01*
X131557142Y-60267857D02*
X131521428Y-60303571D01*
X131557142Y-60339285D01*
X131592857Y-60303571D01*
X131557142Y-60267857D01*
X131557142Y-60339285D01*
X131271428Y-59589285D02*
X130807142Y-59589285D01*
X131057142Y-59875000D01*
X130950000Y-59875000D01*
X130878571Y-59910714D01*
X130842857Y-59946428D01*
X130807142Y-60017857D01*
X130807142Y-60196428D01*
X130842857Y-60267857D01*
X130878571Y-60303571D01*
X130950000Y-60339285D01*
X131164285Y-60339285D01*
X131235714Y-60303571D01*
X131271428Y-60267857D01*
X130592857Y-59589285D02*
X130342857Y-60339285D01*
X130092857Y-59589285D01*
X135900000Y-59589285D02*
X135757142Y-59589285D01*
X135685714Y-59625000D01*
X135614285Y-59696428D01*
X135578571Y-59839285D01*
X135578571Y-60089285D01*
X135614285Y-60232142D01*
X135685714Y-60303571D01*
X135757142Y-60339285D01*
X135900000Y-60339285D01*
X135971428Y-60303571D01*
X136042857Y-60232142D01*
X136078571Y-60089285D01*
X136078571Y-59839285D01*
X136042857Y-59696428D01*
X135971428Y-59625000D01*
X135900000Y-59589285D01*
X135257142Y-59589285D02*
X135257142Y-60196428D01*
X135221428Y-60267857D01*
X135185714Y-60303571D01*
X135114285Y-60339285D01*
X134971428Y-60339285D01*
X134900000Y-60303571D01*
X134864285Y-60267857D01*
X134828571Y-60196428D01*
X134828571Y-59589285D01*
X134578571Y-59589285D02*
X134150000Y-59589285D01*
X134364285Y-60339285D02*
X134364285Y-59589285D01*
X165871428Y-76675000D02*
X165942857Y-76639285D01*
X166050000Y-76639285D01*
X166157142Y-76675000D01*
X166228571Y-76746428D01*
X166264285Y-76817857D01*
X166300000Y-76960714D01*
X166300000Y-77067857D01*
X166264285Y-77210714D01*
X166228571Y-77282142D01*
X166157142Y-77353571D01*
X166050000Y-77389285D01*
X165978571Y-77389285D01*
X165871428Y-77353571D01*
X165835714Y-77317857D01*
X165835714Y-77067857D01*
X165978571Y-77067857D01*
X165514285Y-77389285D02*
X165514285Y-76639285D01*
X165085714Y-77389285D01*
X165085714Y-76639285D01*
X164728571Y-77389285D02*
X164728571Y-76639285D01*
X164550000Y-76639285D01*
X164442857Y-76675000D01*
X164371428Y-76746428D01*
X164335714Y-76817857D01*
X164300000Y-76960714D01*
X164300000Y-77067857D01*
X164335714Y-77210714D01*
X164371428Y-77282142D01*
X164442857Y-77353571D01*
X164550000Y-77389285D01*
X164728571Y-77389285D01*
X166939285Y-79653571D02*
X166367857Y-79653571D01*
X166653571Y-79939285D02*
X166653571Y-79367857D01*
X165653571Y-79189285D02*
X166010714Y-79189285D01*
X166046428Y-79546428D01*
X166010714Y-79510714D01*
X165939285Y-79475000D01*
X165760714Y-79475000D01*
X165689285Y-79510714D01*
X165653571Y-79546428D01*
X165617857Y-79617857D01*
X165617857Y-79796428D01*
X165653571Y-79867857D01*
X165689285Y-79903571D01*
X165760714Y-79939285D01*
X165939285Y-79939285D01*
X166010714Y-79903571D01*
X166046428Y-79867857D01*
X165403571Y-79189285D02*
X165153571Y-79939285D01*
X164903571Y-79189285D01*
X164653571Y-79939285D02*
X164653571Y-79189285D01*
X164367857Y-79189285D01*
X164296428Y-79225000D01*
X164260714Y-79260714D01*
X164225000Y-79332142D01*
X164225000Y-79439285D01*
X164260714Y-79510714D01*
X164296428Y-79546428D01*
X164367857Y-79582142D01*
X164653571Y-79582142D01*
X166303571Y-82489285D02*
X166303571Y-81739285D01*
X166017857Y-81739285D01*
X165946428Y-81775000D01*
X165910714Y-81810714D01*
X165875000Y-81882142D01*
X165875000Y-81989285D01*
X165910714Y-82060714D01*
X165946428Y-82096428D01*
X166017857Y-82132142D01*
X166303571Y-82132142D01*
X165625000Y-81739285D02*
X165446428Y-82489285D01*
X165303571Y-81953571D01*
X165160714Y-82489285D01*
X164982142Y-81739285D01*
X164696428Y-82489285D02*
X164696428Y-81739285D01*
X164446428Y-82275000D01*
X164196428Y-81739285D01*
X164196428Y-82489285D01*
X166889285Y-70553571D02*
X166317857Y-70553571D01*
X166603571Y-70839285D02*
X166603571Y-70267857D01*
X165603571Y-70089285D02*
X165960714Y-70089285D01*
X165996428Y-70446428D01*
X165960714Y-70410714D01*
X165889285Y-70375000D01*
X165710714Y-70375000D01*
X165639285Y-70410714D01*
X165603571Y-70446428D01*
X165567857Y-70517857D01*
X165567857Y-70696428D01*
X165603571Y-70767857D01*
X165639285Y-70803571D01*
X165710714Y-70839285D01*
X165889285Y-70839285D01*
X165960714Y-70803571D01*
X165996428Y-70767857D01*
X165353571Y-70089285D02*
X165103571Y-70839285D01*
X164853571Y-70089285D01*
X164603571Y-70839285D02*
X164603571Y-70089285D01*
X164317857Y-70089285D01*
X164246428Y-70125000D01*
X164210714Y-70160714D01*
X164175000Y-70232142D01*
X164175000Y-70339285D01*
X164210714Y-70410714D01*
X164246428Y-70446428D01*
X164317857Y-70482142D01*
X164603571Y-70482142D01*
X165821428Y-67575000D02*
X165892857Y-67539285D01*
X166000000Y-67539285D01*
X166107142Y-67575000D01*
X166178571Y-67646428D01*
X166214285Y-67717857D01*
X166250000Y-67860714D01*
X166250000Y-67967857D01*
X166214285Y-68110714D01*
X166178571Y-68182142D01*
X166107142Y-68253571D01*
X166000000Y-68289285D01*
X165928571Y-68289285D01*
X165821428Y-68253571D01*
X165785714Y-68217857D01*
X165785714Y-67967857D01*
X165928571Y-67967857D01*
X165464285Y-68289285D02*
X165464285Y-67539285D01*
X165035714Y-68289285D01*
X165035714Y-67539285D01*
X164678571Y-68289285D02*
X164678571Y-67539285D01*
X164500000Y-67539285D01*
X164392857Y-67575000D01*
X164321428Y-67646428D01*
X164285714Y-67717857D01*
X164250000Y-67860714D01*
X164250000Y-67967857D01*
X164285714Y-68110714D01*
X164321428Y-68182142D01*
X164392857Y-68253571D01*
X164500000Y-68289285D01*
X164678571Y-68289285D01*
X166303571Y-73339285D02*
X166303571Y-72589285D01*
X166017857Y-72589285D01*
X165946428Y-72625000D01*
X165910714Y-72660714D01*
X165875000Y-72732142D01*
X165875000Y-72839285D01*
X165910714Y-72910714D01*
X165946428Y-72946428D01*
X166017857Y-72982142D01*
X166303571Y-72982142D01*
X165625000Y-72589285D02*
X165446428Y-73339285D01*
X165303571Y-72803571D01*
X165160714Y-73339285D01*
X164982142Y-72589285D01*
X164696428Y-73339285D02*
X164696428Y-72589285D01*
X164446428Y-73125000D01*
X164196428Y-72589285D01*
X164196428Y-73339285D01*
X168857142Y-66797619D02*
X168904761Y-66750000D01*
X168952380Y-66607142D01*
X168952380Y-66511904D01*
X168904761Y-66369047D01*
X168809523Y-66273809D01*
X168714285Y-66226190D01*
X168523809Y-66178571D01*
X168380952Y-66178571D01*
X168190476Y-66226190D01*
X168095238Y-66273809D01*
X168000000Y-66369047D01*
X167952380Y-66511904D01*
X167952380Y-66607142D01*
X168000000Y-66750000D01*
X168047619Y-66797619D01*
X168285714Y-67654761D02*
X168952380Y-67654761D01*
X168285714Y-67226190D02*
X168809523Y-67226190D01*
X168904761Y-67273809D01*
X168952380Y-67369047D01*
X168952380Y-67511904D01*
X168904761Y-67607142D01*
X168857142Y-67654761D01*
X168952380Y-68130952D02*
X167952380Y-68130952D01*
X168333333Y-68130952D02*
X168285714Y-68226190D01*
X168285714Y-68416666D01*
X168333333Y-68511904D01*
X168380952Y-68559523D01*
X168476190Y-68607142D01*
X168761904Y-68607142D01*
X168857142Y-68559523D01*
X168904761Y-68511904D01*
X168952380Y-68416666D01*
X168952380Y-68226190D01*
X168904761Y-68130952D01*
X168904761Y-69416666D02*
X168952380Y-69321428D01*
X168952380Y-69130952D01*
X168904761Y-69035714D01*
X168809523Y-68988095D01*
X168428571Y-68988095D01*
X168333333Y-69035714D01*
X168285714Y-69130952D01*
X168285714Y-69321428D01*
X168333333Y-69416666D01*
X168428571Y-69464285D01*
X168523809Y-69464285D01*
X168619047Y-68988095D01*
X168904761Y-70607142D02*
X168952380Y-70750000D01*
X168952380Y-70988095D01*
X168904761Y-71083333D01*
X168857142Y-71130952D01*
X168761904Y-71178571D01*
X168666666Y-71178571D01*
X168571428Y-71130952D01*
X168523809Y-71083333D01*
X168476190Y-70988095D01*
X168428571Y-70797619D01*
X168380952Y-70702380D01*
X168333333Y-70654761D01*
X168238095Y-70607142D01*
X168142857Y-70607142D01*
X168047619Y-70654761D01*
X168000000Y-70702380D01*
X167952380Y-70797619D01*
X167952380Y-71035714D01*
X168000000Y-71178571D01*
X168904761Y-71988095D02*
X168952380Y-71892857D01*
X168952380Y-71702380D01*
X168904761Y-71607142D01*
X168809523Y-71559523D01*
X168428571Y-71559523D01*
X168333333Y-71607142D01*
X168285714Y-71702380D01*
X168285714Y-71892857D01*
X168333333Y-71988095D01*
X168428571Y-72035714D01*
X168523809Y-72035714D01*
X168619047Y-71559523D01*
X168952380Y-72464285D02*
X168285714Y-72464285D01*
X168476190Y-72464285D02*
X168380952Y-72511904D01*
X168333333Y-72559523D01*
X168285714Y-72654761D01*
X168285714Y-72750000D01*
X168285714Y-72988095D02*
X168952380Y-73226190D01*
X168285714Y-73464285D01*
X168952380Y-73988095D02*
X168904761Y-73892857D01*
X168857142Y-73845238D01*
X168761904Y-73797619D01*
X168476190Y-73797619D01*
X168380952Y-73845238D01*
X168333333Y-73892857D01*
X168285714Y-73988095D01*
X168285714Y-74130952D01*
X168333333Y-74226190D01*
X168380952Y-74273809D01*
X168476190Y-74321428D01*
X168761904Y-74321428D01*
X168857142Y-74273809D01*
X168904761Y-74226190D01*
X168952380Y-74130952D01*
X168952380Y-73988095D01*
X168102380Y-75980952D02*
X168102380Y-76552380D01*
X169102380Y-76266666D02*
X168102380Y-76266666D01*
X169102380Y-77028571D02*
X169054761Y-76933333D01*
X169007142Y-76885714D01*
X168911904Y-76838095D01*
X168626190Y-76838095D01*
X168530952Y-76885714D01*
X168483333Y-76933333D01*
X168435714Y-77028571D01*
X168435714Y-77171428D01*
X168483333Y-77266666D01*
X168530952Y-77314285D01*
X168626190Y-77361904D01*
X168911904Y-77361904D01*
X169007142Y-77314285D01*
X169054761Y-77266666D01*
X169102380Y-77171428D01*
X169102380Y-77028571D01*
X168435714Y-77790476D02*
X169435714Y-77790476D01*
X168483333Y-77790476D02*
X168435714Y-77885714D01*
X168435714Y-78076190D01*
X168483333Y-78171428D01*
X168530952Y-78219047D01*
X168626190Y-78266666D01*
X168911904Y-78266666D01*
X169007142Y-78219047D01*
X169054761Y-78171428D01*
X169102380Y-78076190D01*
X169102380Y-77885714D01*
X169054761Y-77790476D01*
X169054761Y-79409523D02*
X169102380Y-79552380D01*
X169102380Y-79790476D01*
X169054761Y-79885714D01*
X169007142Y-79933333D01*
X168911904Y-79980952D01*
X168816666Y-79980952D01*
X168721428Y-79933333D01*
X168673809Y-79885714D01*
X168626190Y-79790476D01*
X168578571Y-79600000D01*
X168530952Y-79504761D01*
X168483333Y-79457142D01*
X168388095Y-79409523D01*
X168292857Y-79409523D01*
X168197619Y-79457142D01*
X168150000Y-79504761D01*
X168102380Y-79600000D01*
X168102380Y-79838095D01*
X168150000Y-79980952D01*
X169054761Y-80790476D02*
X169102380Y-80695238D01*
X169102380Y-80504761D01*
X169054761Y-80409523D01*
X168959523Y-80361904D01*
X168578571Y-80361904D01*
X168483333Y-80409523D01*
X168435714Y-80504761D01*
X168435714Y-80695238D01*
X168483333Y-80790476D01*
X168578571Y-80838095D01*
X168673809Y-80838095D01*
X168769047Y-80361904D01*
X169102380Y-81266666D02*
X168435714Y-81266666D01*
X168626190Y-81266666D02*
X168530952Y-81314285D01*
X168483333Y-81361904D01*
X168435714Y-81457142D01*
X168435714Y-81552380D01*
X168435714Y-81790476D02*
X169102380Y-82028571D01*
X168435714Y-82266666D01*
X169102380Y-82790476D02*
X169054761Y-82695238D01*
X169007142Y-82647619D01*
X168911904Y-82600000D01*
X168626190Y-82600000D01*
X168530952Y-82647619D01*
X168483333Y-82695238D01*
X168435714Y-82790476D01*
X168435714Y-82933333D01*
X168483333Y-83028571D01*
X168530952Y-83076190D01*
X168626190Y-83123809D01*
X168911904Y-83123809D01*
X169007142Y-83076190D01*
X169054761Y-83028571D01*
X169102380Y-82933333D01*
X169102380Y-82790476D01*
X150592857Y-55402380D02*
X151069047Y-55402380D01*
X151069047Y-54402380D01*
X150259523Y-54878571D02*
X149926190Y-54878571D01*
X149783333Y-55402380D02*
X150259523Y-55402380D01*
X150259523Y-54402380D01*
X149783333Y-54402380D01*
X149354761Y-55402380D02*
X149354761Y-54402380D01*
X149116666Y-54402380D01*
X148973809Y-54450000D01*
X148878571Y-54545238D01*
X148830952Y-54640476D01*
X148783333Y-54830952D01*
X148783333Y-54973809D01*
X148830952Y-55164285D01*
X148878571Y-55259523D01*
X148973809Y-55354761D01*
X149116666Y-55402380D01*
X149354761Y-55402380D01*
X125771428Y-53852380D02*
X125200000Y-53852380D01*
X125485714Y-54852380D02*
X125485714Y-53852380D01*
X124723809Y-54852380D02*
X124819047Y-54804761D01*
X124866666Y-54757142D01*
X124914285Y-54661904D01*
X124914285Y-54376190D01*
X124866666Y-54280952D01*
X124819047Y-54233333D01*
X124723809Y-54185714D01*
X124580952Y-54185714D01*
X124485714Y-54233333D01*
X124438095Y-54280952D01*
X124390476Y-54376190D01*
X124390476Y-54661904D01*
X124438095Y-54757142D01*
X124485714Y-54804761D01*
X124580952Y-54852380D01*
X124723809Y-54852380D01*
X123533333Y-54185714D02*
X123533333Y-54852380D01*
X123961904Y-54185714D02*
X123961904Y-54709523D01*
X123914285Y-54804761D01*
X123819047Y-54852380D01*
X123676190Y-54852380D01*
X123580952Y-54804761D01*
X123533333Y-54757142D01*
X122628571Y-54804761D02*
X122723809Y-54852380D01*
X122914285Y-54852380D01*
X123009523Y-54804761D01*
X123057142Y-54757142D01*
X123104761Y-54661904D01*
X123104761Y-54376190D01*
X123057142Y-54280952D01*
X123009523Y-54233333D01*
X122914285Y-54185714D01*
X122723809Y-54185714D01*
X122628571Y-54233333D01*
X122200000Y-54852380D02*
X122200000Y-53852380D01*
X121771428Y-54852380D02*
X121771428Y-54328571D01*
X121819047Y-54233333D01*
X121914285Y-54185714D01*
X122057142Y-54185714D01*
X122152380Y-54233333D01*
X122200000Y-54280952D01*
D11*
%TO.C,J10*%
X136610000Y-52840000D02*
X136610000Y-58810000D01*
X136610000Y-58810000D02*
X126490000Y-58810000D01*
X126490000Y-58810000D02*
X126490000Y-52840000D01*
X126490000Y-52840000D02*
X136610000Y-52840000D01*
X133300000Y-52850000D02*
X133300000Y-53600000D01*
X133300000Y-53600000D02*
X129800000Y-53600000D01*
X129800000Y-53600000D02*
X129800000Y-52850000D01*
X129800000Y-52850000D02*
X133300000Y-52850000D01*
X136600000Y-52850000D02*
X136600000Y-53600000D01*
X136600000Y-53600000D02*
X134800000Y-53600000D01*
X134800000Y-53600000D02*
X134800000Y-52850000D01*
X134800000Y-52850000D02*
X136600000Y-52850000D01*
X128300000Y-52850000D02*
X128300000Y-53600000D01*
X128300000Y-53600000D02*
X126500000Y-53600000D01*
X126500000Y-53600000D02*
X126500000Y-52850000D01*
X126500000Y-52850000D02*
X128300000Y-52850000D01*
X136600000Y-55100000D02*
X135850000Y-55100000D01*
X135850000Y-55100000D02*
X135850000Y-58050000D01*
X135850000Y-58050000D02*
X131550000Y-58050000D01*
X126500000Y-55100000D02*
X127250000Y-55100000D01*
X127250000Y-55100000D02*
X127250000Y-58050000D01*
X127250000Y-58050000D02*
X131550000Y-58050000D01*
X135650000Y-52550000D02*
X136900000Y-52550000D01*
X136900000Y-52550000D02*
X136900000Y-53800000D01*
%TO.C,J9*%
X148060000Y-52840000D02*
X148060000Y-58810000D01*
X148060000Y-58810000D02*
X137940000Y-58810000D01*
X137940000Y-58810000D02*
X137940000Y-52840000D01*
X137940000Y-52840000D02*
X148060000Y-52840000D01*
X144750000Y-52850000D02*
X144750000Y-53600000D01*
X144750000Y-53600000D02*
X141250000Y-53600000D01*
X141250000Y-53600000D02*
X141250000Y-52850000D01*
X141250000Y-52850000D02*
X144750000Y-52850000D01*
X148050000Y-52850000D02*
X148050000Y-53600000D01*
X148050000Y-53600000D02*
X146250000Y-53600000D01*
X146250000Y-53600000D02*
X146250000Y-52850000D01*
X146250000Y-52850000D02*
X148050000Y-52850000D01*
X139750000Y-52850000D02*
X139750000Y-53600000D01*
X139750000Y-53600000D02*
X137950000Y-53600000D01*
X137950000Y-53600000D02*
X137950000Y-52850000D01*
X137950000Y-52850000D02*
X139750000Y-52850000D01*
X148050000Y-55100000D02*
X147300000Y-55100000D01*
X147300000Y-55100000D02*
X147300000Y-58050000D01*
X147300000Y-58050000D02*
X143000000Y-58050000D01*
X137950000Y-55100000D02*
X138700000Y-55100000D01*
X138700000Y-55100000D02*
X138700000Y-58050000D01*
X138700000Y-58050000D02*
X143000000Y-58050000D01*
X147100000Y-52550000D02*
X148350000Y-52550000D01*
X148350000Y-52550000D02*
X148350000Y-53800000D01*
%TO.C,C4*%
X109635000Y-71088748D02*
X109635000Y-71611252D01*
X108165000Y-71088748D02*
X108165000Y-71611252D01*
%TO.C,C2*%
X140161252Y-84735000D02*
X139638748Y-84735000D01*
X140161252Y-83265000D02*
X139638748Y-83265000D01*
%TO.C,J1*%
X107540000Y-64770000D02*
X107540000Y-66100000D01*
X107540000Y-66100000D02*
X108870000Y-66100000D01*
X107540000Y-63500000D02*
X110140000Y-63500000D01*
X110140000Y-63500000D02*
X110140000Y-66100000D01*
X110140000Y-66100000D02*
X158460000Y-66100000D01*
X158460000Y-60900000D02*
X158460000Y-66100000D01*
X107540000Y-60900000D02*
X158460000Y-60900000D01*
X107540000Y-60900000D02*
X107540000Y-63500000D01*
%TO.C,J10*%
D10*
X125309523Y-55552380D02*
X125309523Y-56266666D01*
X125357142Y-56409523D01*
X125452380Y-56504761D01*
X125595238Y-56552380D01*
X125690476Y-56552380D01*
X124309523Y-56552380D02*
X124880952Y-56552380D01*
X124595238Y-56552380D02*
X124595238Y-55552380D01*
X124690476Y-55695238D01*
X124785714Y-55790476D01*
X124880952Y-55838095D01*
X123690476Y-55552380D02*
X123595238Y-55552380D01*
X123500000Y-55600000D01*
X123452380Y-55647619D01*
X123404761Y-55742857D01*
X123357142Y-55933333D01*
X123357142Y-56171428D01*
X123404761Y-56361904D01*
X123452380Y-56457142D01*
X123500000Y-56504761D01*
X123595238Y-56552380D01*
X123690476Y-56552380D01*
X123785714Y-56504761D01*
X123833333Y-56457142D01*
X123880952Y-56361904D01*
X123928571Y-56171428D01*
X123928571Y-55933333D01*
X123880952Y-55742857D01*
X123833333Y-55647619D01*
X123785714Y-55600000D01*
X123690476Y-55552380D01*
%TO.C,J9*%
X149833333Y-55852380D02*
X149833333Y-56566666D01*
X149880952Y-56709523D01*
X149976190Y-56804761D01*
X150119047Y-56852380D01*
X150214285Y-56852380D01*
X149309523Y-56852380D02*
X149119047Y-56852380D01*
X149023809Y-56804761D01*
X148976190Y-56757142D01*
X148880952Y-56614285D01*
X148833333Y-56423809D01*
X148833333Y-56042857D01*
X148880952Y-55947619D01*
X148928571Y-55900000D01*
X149023809Y-55852380D01*
X149214285Y-55852380D01*
X149309523Y-55900000D01*
X149357142Y-55947619D01*
X149404761Y-56042857D01*
X149404761Y-56280952D01*
X149357142Y-56376190D01*
X149309523Y-56423809D01*
X149214285Y-56471428D01*
X149023809Y-56471428D01*
X148928571Y-56423809D01*
X148880952Y-56376190D01*
X148833333Y-56280952D01*
%TO.C,C4*%
X109266666Y-69057142D02*
X109314285Y-69104761D01*
X109457142Y-69152380D01*
X109552380Y-69152380D01*
X109695238Y-69104761D01*
X109790476Y-69009523D01*
X109838095Y-68914285D01*
X109885714Y-68723809D01*
X109885714Y-68580952D01*
X109838095Y-68390476D01*
X109790476Y-68295238D01*
X109695238Y-68200000D01*
X109552380Y-68152380D01*
X109457142Y-68152380D01*
X109314285Y-68200000D01*
X109266666Y-68247619D01*
X108409523Y-68485714D02*
X108409523Y-69152380D01*
X108647619Y-68104761D02*
X108885714Y-68819047D01*
X108266666Y-68819047D01*
%TO.C,C2*%
X143166666Y-84307142D02*
X143214285Y-84354761D01*
X143357142Y-84402380D01*
X143452380Y-84402380D01*
X143595238Y-84354761D01*
X143690476Y-84259523D01*
X143738095Y-84164285D01*
X143785714Y-83973809D01*
X143785714Y-83830952D01*
X143738095Y-83640476D01*
X143690476Y-83545238D01*
X143595238Y-83450000D01*
X143452380Y-83402380D01*
X143357142Y-83402380D01*
X143214285Y-83450000D01*
X143166666Y-83497619D01*
X142785714Y-83497619D02*
X142738095Y-83450000D01*
X142642857Y-83402380D01*
X142404761Y-83402380D01*
X142309523Y-83450000D01*
X142261904Y-83497619D01*
X142214285Y-83592857D01*
X142214285Y-83688095D01*
X142261904Y-83830952D01*
X142833333Y-84402380D01*
X142214285Y-84402380D01*
%TO.C,J1*%
X133333333Y-66852380D02*
X133333333Y-67566666D01*
X133380952Y-67709523D01*
X133476190Y-67804761D01*
X133619047Y-67852380D01*
X133714285Y-67852380D01*
X132333333Y-67852380D02*
X132904761Y-67852380D01*
X132619047Y-67852380D02*
X132619047Y-66852380D01*
X132714285Y-66995238D01*
X132809523Y-67090476D01*
X132904761Y-67138095D01*
%TD*%
M02*
