M48
; DRILL file {KiCad (5.1.10)-1} date 05/11/23 15:26:45
; FORMAT={-:-/ absolute / inch / decimal}
; #@! TF.CreationDate,2023-05-11T15:26:45-07:00
; #@! TF.GenerationSoftware,Kicad,Pcbnew,(5.1.10)-1
; #@! TF.FileFunction,Plated,1,2,PTH
FMAT,2
INCH
T1C0.0157
T2C0.0236
T3C0.0374
T4C0.0394
%
G90
G05
T1
X4.249Y-2.374
X5.4252Y-2.2913
X5.4749Y-2.341
T2
X4.0906Y-3.1811
X4.1693Y-3.1811
X6.2047Y-3.063
X6.2047Y-3.1417
X6.2087Y-2.7047
X6.2087Y-2.7835
T3
X4.4764Y-2.752
X4.4764Y-2.8504
X4.4764Y-2.9488
X4.4764Y-3.0472
X4.4764Y-3.1457
X4.4764Y-3.2441
X5.0807Y-2.1772
X5.1791Y-2.1772
X5.2776Y-2.1772
X5.5315Y-2.1772
X5.6299Y-2.1772
X5.7283Y-2.1772
T4
X4.1713Y-2.7559
X4.1713Y-2.8543
X4.2862Y-2.45
X4.2862Y-2.55
X4.3862Y-2.45
X4.3862Y-2.55
X4.4862Y-2.45
X4.4862Y-2.55
X4.5862Y-2.45
X4.5862Y-2.55
X4.6862Y-2.45
X4.6862Y-2.55
X4.7862Y-2.45
X4.7862Y-2.55
X4.8862Y-2.45
X4.8862Y-2.55
X4.9862Y-2.45
X4.9862Y-2.55
X5.0862Y-2.45
X5.0862Y-2.55
X5.1862Y-2.45
X5.1862Y-2.55
X5.2862Y-2.45
X5.2862Y-2.55
X5.3862Y-2.45
X5.3862Y-2.55
X5.4567Y-3.4213
X5.4862Y-2.45
X5.4862Y-2.55
X5.5551Y-3.4213
X5.5862Y-2.45
X5.5862Y-2.55
X5.6862Y-2.45
X5.6862Y-2.55
X5.75Y-3.4626
X5.7862Y-2.45
X5.7862Y-2.55
X5.85Y-3.4626
X5.8862Y-2.45
X5.8862Y-2.55
X5.9862Y-2.45
X5.9862Y-2.55
X6.0453Y-3.4193
X6.0862Y-2.45
X6.0862Y-2.55
X6.1437Y-3.4193
X6.1862Y-2.45
X6.1862Y-2.55
X6.4094Y-2.6732
X6.4094Y-2.7732
X6.4094Y-2.8732
X6.4094Y-3.0315
X6.4094Y-3.1315
X6.4094Y-3.2315
T0
M30
