%TF.GenerationSoftware,KiCad,Pcbnew,(5.1.10)-1*%
%TF.CreationDate,2023-05-11T15:26:33-07:00*%
%TF.ProjectId,CUBOTino2,4355424f-5469-46e6-9f32-2e6b69636164,rev?*%
%TF.SameCoordinates,Original*%
%TF.FileFunction,Soldermask,Top*%
%TF.FilePolarity,Negative*%
%FSLAX46Y46*%
G04 Gerber Fmt 4.6, Leading zero omitted, Abs format (unit mm)*
G04 Created by KiCad (PCBNEW (5.1.10)-1) date 2023-05-11 15:26:33*
%MOMM*%
%LPD*%
G01*
G04 APERTURE LIST*
%ADD10O,1.700000X2.000000*%
%ADD11O,2.000000X1.700000*%
%ADD12O,1.950000X1.700000*%
%ADD13O,1.700000X1.700000*%
%ADD14R,1.700000X1.700000*%
%ADD15O,1.700000X1.950000*%
%ADD16R,0.650000X1.060000*%
%ADD17C,1.200000*%
%ADD18C,2.700000*%
G04 APERTURE END LIST*
D10*
%TO.C,J6*%
X153550000Y-86850000D03*
G36*
G01*
X156900000Y-86100000D02*
X156900000Y-87600000D01*
G75*
G02*
X156650000Y-87850000I-250000J0D01*
G01*
X155450000Y-87850000D01*
G75*
G02*
X155200000Y-87600000I0J250000D01*
G01*
X155200000Y-86100000D01*
G75*
G02*
X155450000Y-85850000I250000J0D01*
G01*
X156650000Y-85850000D01*
G75*
G02*
X156900000Y-86100000I0J-250000D01*
G01*
G37*
%TD*%
%TO.C,J4*%
X138600000Y-86900000D03*
G36*
G01*
X141950000Y-86150000D02*
X141950000Y-87650000D01*
G75*
G02*
X141700000Y-87900000I-250000J0D01*
G01*
X140500000Y-87900000D01*
G75*
G02*
X140250000Y-87650000I0J250000D01*
G01*
X140250000Y-86150000D01*
G75*
G02*
X140500000Y-85900000I250000J0D01*
G01*
X141700000Y-85900000D01*
G75*
G02*
X141950000Y-86150000I0J-250000D01*
G01*
G37*
%TD*%
D11*
%TO.C,J2*%
X105950000Y-72500000D03*
G36*
G01*
X105200000Y-69150000D02*
X106700000Y-69150000D01*
G75*
G02*
X106950000Y-69400000I0J-250000D01*
G01*
X106950000Y-70600000D01*
G75*
G02*
X106700000Y-70850000I-250000J0D01*
G01*
X105200000Y-70850000D01*
G75*
G02*
X104950000Y-70600000I0J250000D01*
G01*
X104950000Y-69400000D01*
G75*
G02*
X105200000Y-69150000I250000J0D01*
G01*
G37*
%TD*%
D12*
%TO.C,J3*%
X113700000Y-82400000D03*
X113700000Y-79900000D03*
X113700000Y-77400000D03*
X113700000Y-74900000D03*
X113700000Y-72400000D03*
G36*
G01*
X112975000Y-69050000D02*
X114425000Y-69050000D01*
G75*
G02*
X114675000Y-69300000I0J-250000D01*
G01*
X114675000Y-70500000D01*
G75*
G02*
X114425000Y-70750000I-250000J0D01*
G01*
X112975000Y-70750000D01*
G75*
G02*
X112725000Y-70500000I0J250000D01*
G01*
X112725000Y-69300000D01*
G75*
G02*
X112975000Y-69050000I250000J0D01*
G01*
G37*
%TD*%
D13*
%TO.C,J8*%
X162800000Y-82080000D03*
X162800000Y-79540000D03*
D14*
X162800000Y-77000000D03*
%TD*%
D13*
%TO.C,J7*%
X162800000Y-72980000D03*
X162800000Y-70440000D03*
D14*
X162800000Y-67900000D03*
%TD*%
D15*
%TO.C,J10*%
X129050000Y-55300000D03*
X131550000Y-55300000D03*
G36*
G01*
X134900000Y-54575000D02*
X134900000Y-56025000D01*
G75*
G02*
X134650000Y-56275000I-250000J0D01*
G01*
X133450000Y-56275000D01*
G75*
G02*
X133200000Y-56025000I0J250000D01*
G01*
X133200000Y-54575000D01*
G75*
G02*
X133450000Y-54325000I250000J0D01*
G01*
X134650000Y-54325000D01*
G75*
G02*
X134900000Y-54575000I0J-250000D01*
G01*
G37*
%TD*%
%TO.C,J9*%
X140500000Y-55300000D03*
X143000000Y-55300000D03*
G36*
G01*
X146350000Y-54575000D02*
X146350000Y-56025000D01*
G75*
G02*
X146100000Y-56275000I-250000J0D01*
G01*
X144900000Y-56275000D01*
G75*
G02*
X144650000Y-56025000I0J250000D01*
G01*
X144650000Y-54575000D01*
G75*
G02*
X144900000Y-54325000I250000J0D01*
G01*
X146100000Y-54325000D01*
G75*
G02*
X146350000Y-54575000I0J-250000D01*
G01*
G37*
%TD*%
D16*
%TO.C,U1*%
X106950000Y-56700000D03*
X108850000Y-56700000D03*
X108850000Y-58900000D03*
X107900000Y-58900000D03*
X106950000Y-58900000D03*
%TD*%
%TO.C,C3*%
G36*
G01*
X110625000Y-58250000D02*
X111575000Y-58250000D01*
G75*
G02*
X111825000Y-58500000I0J-250000D01*
G01*
X111825000Y-59175000D01*
G75*
G02*
X111575000Y-59425000I-250000J0D01*
G01*
X110625000Y-59425000D01*
G75*
G02*
X110375000Y-59175000I0J250000D01*
G01*
X110375000Y-58500000D01*
G75*
G02*
X110625000Y-58250000I250000J0D01*
G01*
G37*
G36*
G01*
X110625000Y-56175000D02*
X111575000Y-56175000D01*
G75*
G02*
X111825000Y-56425000I0J-250000D01*
G01*
X111825000Y-57100000D01*
G75*
G02*
X111575000Y-57350000I-250000J0D01*
G01*
X110625000Y-57350000D01*
G75*
G02*
X110375000Y-57100000I0J250000D01*
G01*
X110375000Y-56425000D01*
G75*
G02*
X110625000Y-56175000I250000J0D01*
G01*
G37*
%TD*%
%TO.C,R3*%
G36*
G01*
X131100000Y-59550001D02*
X131100000Y-58649999D01*
G75*
G02*
X131349999Y-58400000I249999J0D01*
G01*
X132050001Y-58400000D01*
G75*
G02*
X132300000Y-58649999I0J-249999D01*
G01*
X132300000Y-59550001D01*
G75*
G02*
X132050001Y-59800000I-249999J0D01*
G01*
X131349999Y-59800000D01*
G75*
G02*
X131100000Y-59550001I0J249999D01*
G01*
G37*
G36*
G01*
X129100000Y-59550001D02*
X129100000Y-58649999D01*
G75*
G02*
X129349999Y-58400000I249999J0D01*
G01*
X130050001Y-58400000D01*
G75*
G02*
X130300000Y-58649999I0J-249999D01*
G01*
X130300000Y-59550001D01*
G75*
G02*
X130050001Y-59800000I-249999J0D01*
G01*
X129349999Y-59800000D01*
G75*
G02*
X129100000Y-59550001I0J249999D01*
G01*
G37*
%TD*%
%TO.C,R1*%
G36*
G01*
X145499999Y-84250000D02*
X146400001Y-84250000D01*
G75*
G02*
X146650000Y-84499999I0J-249999D01*
G01*
X146650000Y-85200001D01*
G75*
G02*
X146400001Y-85450000I-249999J0D01*
G01*
X145499999Y-85450000D01*
G75*
G02*
X145250000Y-85200001I0J249999D01*
G01*
X145250000Y-84499999D01*
G75*
G02*
X145499999Y-84250000I249999J0D01*
G01*
G37*
G36*
G01*
X145499999Y-82250000D02*
X146400001Y-82250000D01*
G75*
G02*
X146650000Y-82499999I0J-249999D01*
G01*
X146650000Y-83200001D01*
G75*
G02*
X146400001Y-83450000I-249999J0D01*
G01*
X145499999Y-83450000D01*
G75*
G02*
X145250000Y-83200001I0J249999D01*
G01*
X145250000Y-82499999D01*
G75*
G02*
X145499999Y-82250000I249999J0D01*
G01*
G37*
%TD*%
%TO.C,D3*%
G36*
G01*
X127250000Y-59550001D02*
X127250000Y-58649999D01*
G75*
G02*
X127499999Y-58400000I249999J0D01*
G01*
X128150001Y-58400000D01*
G75*
G02*
X128400000Y-58649999I0J-249999D01*
G01*
X128400000Y-59550001D01*
G75*
G02*
X128150001Y-59800000I-249999J0D01*
G01*
X127499999Y-59800000D01*
G75*
G02*
X127250000Y-59550001I0J249999D01*
G01*
G37*
G36*
G01*
X125200000Y-59550001D02*
X125200000Y-58649999D01*
G75*
G02*
X125449999Y-58400000I249999J0D01*
G01*
X126100001Y-58400000D01*
G75*
G02*
X126350000Y-58649999I0J-249999D01*
G01*
X126350000Y-59550001D01*
G75*
G02*
X126100001Y-59800000I-249999J0D01*
G01*
X125449999Y-59800000D01*
G75*
G02*
X125200000Y-59550001I0J249999D01*
G01*
G37*
%TD*%
%TO.C,D1*%
G36*
G01*
X142900000Y-81900001D02*
X142900000Y-80999999D01*
G75*
G02*
X143149999Y-80750000I249999J0D01*
G01*
X143800001Y-80750000D01*
G75*
G02*
X144050000Y-80999999I0J-249999D01*
G01*
X144050000Y-81900001D01*
G75*
G02*
X143800001Y-82150000I-249999J0D01*
G01*
X143149999Y-82150000D01*
G75*
G02*
X142900000Y-81900001I0J249999D01*
G01*
G37*
G36*
G01*
X140850000Y-81900001D02*
X140850000Y-80999999D01*
G75*
G02*
X141099999Y-80750000I249999J0D01*
G01*
X141750001Y-80750000D01*
G75*
G02*
X142000000Y-80999999I0J-249999D01*
G01*
X142000000Y-81900001D01*
G75*
G02*
X141750001Y-82150000I-249999J0D01*
G01*
X141099999Y-82150000D01*
G75*
G02*
X140850000Y-81900001I0J249999D01*
G01*
G37*
%TD*%
D17*
%TO.C,C7*%
X157700000Y-68700000D03*
X157700000Y-70700000D03*
%TD*%
%TO.C,C6*%
X157600000Y-77800000D03*
X157600000Y-79800000D03*
%TD*%
%TO.C,C1*%
X105900000Y-80800000D03*
X103900000Y-80800000D03*
%TD*%
D18*
%TO.C,H4*%
X162000000Y-86500000D03*
%TD*%
%TO.C,H3*%
X104000000Y-86500000D03*
%TD*%
%TO.C,H2*%
X162000000Y-63500000D03*
%TD*%
%TO.C,H1*%
X104000000Y-63500000D03*
%TD*%
%TO.C,C5*%
G36*
G01*
X113049998Y-58200000D02*
X114350002Y-58200000D01*
G75*
G02*
X114600000Y-58449998I0J-249998D01*
G01*
X114600000Y-59275002D01*
G75*
G02*
X114350002Y-59525000I-249998J0D01*
G01*
X113049998Y-59525000D01*
G75*
G02*
X112800000Y-59275002I0J249998D01*
G01*
X112800000Y-58449998D01*
G75*
G02*
X113049998Y-58200000I249998J0D01*
G01*
G37*
G36*
G01*
X113049998Y-55075000D02*
X114350002Y-55075000D01*
G75*
G02*
X114600000Y-55324998I0J-249998D01*
G01*
X114600000Y-56150002D01*
G75*
G02*
X114350002Y-56400000I-249998J0D01*
G01*
X113049998Y-56400000D01*
G75*
G02*
X112800000Y-56150002I0J249998D01*
G01*
X112800000Y-55324998D01*
G75*
G02*
X113049998Y-55075000I249998J0D01*
G01*
G37*
%TD*%
%TO.C,R2*%
G36*
G01*
X116049999Y-57000000D02*
X116950001Y-57000000D01*
G75*
G02*
X117200000Y-57249999I0J-249999D01*
G01*
X117200000Y-57950001D01*
G75*
G02*
X116950001Y-58200000I-249999J0D01*
G01*
X116049999Y-58200000D01*
G75*
G02*
X115800000Y-57950001I0J249999D01*
G01*
X115800000Y-57249999D01*
G75*
G02*
X116049999Y-57000000I249999J0D01*
G01*
G37*
G36*
G01*
X116049999Y-55000000D02*
X116950001Y-55000000D01*
G75*
G02*
X117200000Y-55249999I0J-249999D01*
G01*
X117200000Y-55950001D01*
G75*
G02*
X116950001Y-56200000I-249999J0D01*
G01*
X116049999Y-56200000D01*
G75*
G02*
X115800000Y-55950001I0J249999D01*
G01*
X115800000Y-55249999D01*
G75*
G02*
X116049999Y-55000000I249999J0D01*
G01*
G37*
%TD*%
D13*
%TO.C,J5*%
X148590000Y-87950000D03*
D14*
X146050000Y-87950000D03*
%TD*%
D13*
%TO.C,J1*%
X157130000Y-62230000D03*
X157130000Y-64770000D03*
X154590000Y-62230000D03*
X154590000Y-64770000D03*
X152050000Y-62230000D03*
X152050000Y-64770000D03*
X149510000Y-62230000D03*
X149510000Y-64770000D03*
X146970000Y-62230000D03*
X146970000Y-64770000D03*
X144430000Y-62230000D03*
X144430000Y-64770000D03*
X141890000Y-62230000D03*
X141890000Y-64770000D03*
X139350000Y-62230000D03*
X139350000Y-64770000D03*
X136810000Y-62230000D03*
X136810000Y-64770000D03*
X134270000Y-62230000D03*
X134270000Y-64770000D03*
X131730000Y-62230000D03*
X131730000Y-64770000D03*
X129190000Y-62230000D03*
X129190000Y-64770000D03*
X126650000Y-62230000D03*
X126650000Y-64770000D03*
X124110000Y-62230000D03*
X124110000Y-64770000D03*
X121570000Y-62230000D03*
X121570000Y-64770000D03*
X119030000Y-62230000D03*
X119030000Y-64770000D03*
X116490000Y-62230000D03*
X116490000Y-64770000D03*
X113950000Y-62230000D03*
X113950000Y-64770000D03*
X111410000Y-62230000D03*
X111410000Y-64770000D03*
X108870000Y-62230000D03*
D14*
X108870000Y-64770000D03*
%TD*%
%TO.C,D2*%
G36*
G01*
X119925000Y-56375000D02*
X118675000Y-56375000D01*
G75*
G02*
X118425000Y-56125000I0J250000D01*
G01*
X118425000Y-55200000D01*
G75*
G02*
X118675000Y-54950000I250000J0D01*
G01*
X119925000Y-54950000D01*
G75*
G02*
X120175000Y-55200000I0J-250000D01*
G01*
X120175000Y-56125000D01*
G75*
G02*
X119925000Y-56375000I-250000J0D01*
G01*
G37*
G36*
G01*
X119925000Y-59350000D02*
X118675000Y-59350000D01*
G75*
G02*
X118425000Y-59100000I0J250000D01*
G01*
X118425000Y-58175000D01*
G75*
G02*
X118675000Y-57925000I250000J0D01*
G01*
X119925000Y-57925000D01*
G75*
G02*
X120175000Y-58175000I0J-250000D01*
G01*
X120175000Y-59100000D01*
G75*
G02*
X119925000Y-59350000I-250000J0D01*
G01*
G37*
%TD*%
M02*
