%TF.GenerationSoftware,KiCad,Pcbnew,(5.1.10)-1*%
%TF.CreationDate,2023-05-11T15:26:33-07:00*%
%TF.ProjectId,CUBOTino2,4355424f-5469-46e6-9f32-2e6b69636164,rev?*%
%TF.SameCoordinates,Original*%
%TF.FileFunction,Legend,Top*%
%TF.FilePolarity,Positive*%
%FSLAX46Y46*%
G04 Gerber Fmt 4.6, Leading zero omitted, Abs format (unit mm)*
G04 Created by KiCad (PCBNEW (5.1.10)-1) date 2023-05-11 15:26:33*
%MOMM*%
%LPD*%
G01*
G04 APERTURE LIST*
%ADD10C,0.150000*%
%ADD11C,0.120000*%
G04 APERTURE END LIST*
D10*
X121357142Y-87002380D02*
X122023809Y-87002380D01*
X121595238Y-88002380D01*
X122595238Y-87002380D02*
X122690476Y-87002380D01*
X122785714Y-87050000D01*
X122833333Y-87097619D01*
X122880952Y-87192857D01*
X122928571Y-87383333D01*
X122928571Y-87621428D01*
X122880952Y-87811904D01*
X122833333Y-87907142D01*
X122785714Y-87954761D01*
X122690476Y-88002380D01*
X122595238Y-88002380D01*
X122500000Y-87954761D01*
X122452380Y-87907142D01*
X122404761Y-87811904D01*
X122357142Y-87621428D01*
X122357142Y-87383333D01*
X122404761Y-87192857D01*
X122452380Y-87097619D01*
X122500000Y-87050000D01*
X122595238Y-87002380D01*
X124023809Y-88002380D02*
X124547619Y-87335714D01*
X124023809Y-87335714D02*
X124547619Y-88002380D01*
X125595238Y-87002380D02*
X126214285Y-87002380D01*
X125880952Y-87383333D01*
X126023809Y-87383333D01*
X126119047Y-87430952D01*
X126166666Y-87478571D01*
X126214285Y-87573809D01*
X126214285Y-87811904D01*
X126166666Y-87907142D01*
X126119047Y-87954761D01*
X126023809Y-88002380D01*
X125738095Y-88002380D01*
X125642857Y-87954761D01*
X125595238Y-87907142D01*
X126785714Y-87430952D02*
X126690476Y-87383333D01*
X126642857Y-87335714D01*
X126595238Y-87240476D01*
X126595238Y-87192857D01*
X126642857Y-87097619D01*
X126690476Y-87050000D01*
X126785714Y-87002380D01*
X126976190Y-87002380D01*
X127071428Y-87050000D01*
X127119047Y-87097619D01*
X127166666Y-87192857D01*
X127166666Y-87240476D01*
X127119047Y-87335714D01*
X127071428Y-87383333D01*
X126976190Y-87430952D01*
X126785714Y-87430952D01*
X126690476Y-87478571D01*
X126642857Y-87526190D01*
X126595238Y-87621428D01*
X126595238Y-87811904D01*
X126642857Y-87907142D01*
X126690476Y-87954761D01*
X126785714Y-88002380D01*
X126976190Y-88002380D01*
X127071428Y-87954761D01*
X127119047Y-87907142D01*
X127166666Y-87811904D01*
X127166666Y-87621428D01*
X127119047Y-87526190D01*
X127071428Y-87478571D01*
X126976190Y-87430952D01*
X128357142Y-88002380D02*
X128357142Y-87335714D01*
X128357142Y-87430952D02*
X128404761Y-87383333D01*
X128500000Y-87335714D01*
X128642857Y-87335714D01*
X128738095Y-87383333D01*
X128785714Y-87478571D01*
X128785714Y-88002380D01*
X128785714Y-87478571D02*
X128833333Y-87383333D01*
X128928571Y-87335714D01*
X129071428Y-87335714D01*
X129166666Y-87383333D01*
X129214285Y-87478571D01*
X129214285Y-88002380D01*
X129690476Y-88002380D02*
X129690476Y-87335714D01*
X129690476Y-87430952D02*
X129738095Y-87383333D01*
X129833333Y-87335714D01*
X129976190Y-87335714D01*
X130071428Y-87383333D01*
X130119047Y-87478571D01*
X130119047Y-88002380D01*
X130119047Y-87478571D02*
X130166666Y-87383333D01*
X130261904Y-87335714D01*
X130404761Y-87335714D01*
X130500000Y-87383333D01*
X130547619Y-87478571D01*
X130547619Y-88002380D01*
X114752380Y-79752380D02*
X113752380Y-79752380D01*
X113752380Y-79514285D01*
X113800000Y-79371428D01*
X113895238Y-79276190D01*
X113990476Y-79228571D01*
X114180952Y-79180952D01*
X114323809Y-79180952D01*
X114514285Y-79228571D01*
X114609523Y-79276190D01*
X114704761Y-79371428D01*
X114752380Y-79514285D01*
X114752380Y-79752380D01*
X114752380Y-78752380D02*
X114085714Y-78752380D01*
X113752380Y-78752380D02*
X113800000Y-78800000D01*
X113847619Y-78752380D01*
X113800000Y-78704761D01*
X113752380Y-78752380D01*
X113847619Y-78752380D01*
X114704761Y-78323809D02*
X114752380Y-78228571D01*
X114752380Y-78038095D01*
X114704761Y-77942857D01*
X114609523Y-77895238D01*
X114561904Y-77895238D01*
X114466666Y-77942857D01*
X114419047Y-78038095D01*
X114419047Y-78180952D01*
X114371428Y-78276190D01*
X114276190Y-78323809D01*
X114228571Y-78323809D01*
X114133333Y-78276190D01*
X114085714Y-78180952D01*
X114085714Y-78038095D01*
X114133333Y-77942857D01*
X114085714Y-77466666D02*
X115085714Y-77466666D01*
X114133333Y-77466666D02*
X114085714Y-77371428D01*
X114085714Y-77180952D01*
X114133333Y-77085714D01*
X114180952Y-77038095D01*
X114276190Y-76990476D01*
X114561904Y-76990476D01*
X114657142Y-77038095D01*
X114704761Y-77085714D01*
X114752380Y-77180952D01*
X114752380Y-77371428D01*
X114704761Y-77466666D01*
X114752380Y-76419047D02*
X114704761Y-76514285D01*
X114609523Y-76561904D01*
X113752380Y-76561904D01*
X114752380Y-75609523D02*
X114228571Y-75609523D01*
X114133333Y-75657142D01*
X114085714Y-75752380D01*
X114085714Y-75942857D01*
X114133333Y-76038095D01*
X114704761Y-75609523D02*
X114752380Y-75704761D01*
X114752380Y-75942857D01*
X114704761Y-76038095D01*
X114609523Y-76085714D01*
X114514285Y-76085714D01*
X114419047Y-76038095D01*
X114371428Y-75942857D01*
X114371428Y-75704761D01*
X114323809Y-75609523D01*
X114085714Y-75228571D02*
X114752380Y-74990476D01*
X114085714Y-74752380D02*
X114752380Y-74990476D01*
X114990476Y-75085714D01*
X115038095Y-75133333D01*
X115085714Y-75228571D01*
X169457142Y-73952380D02*
X169504761Y-74000000D01*
X169552380Y-74142857D01*
X169552380Y-74238095D01*
X169504761Y-74380952D01*
X169409523Y-74476190D01*
X169314285Y-74523809D01*
X169123809Y-74571428D01*
X168980952Y-74571428D01*
X168790476Y-74523809D01*
X168695238Y-74476190D01*
X168600000Y-74380952D01*
X168552380Y-74238095D01*
X168552380Y-74142857D01*
X168600000Y-74000000D01*
X168647619Y-73952380D01*
X168885714Y-73095238D02*
X169552380Y-73095238D01*
X168885714Y-73523809D02*
X169409523Y-73523809D01*
X169504761Y-73476190D01*
X169552380Y-73380952D01*
X169552380Y-73238095D01*
X169504761Y-73142857D01*
X169457142Y-73095238D01*
X169552380Y-72619047D02*
X168552380Y-72619047D01*
X168933333Y-72619047D02*
X168885714Y-72523809D01*
X168885714Y-72333333D01*
X168933333Y-72238095D01*
X168980952Y-72190476D01*
X169076190Y-72142857D01*
X169361904Y-72142857D01*
X169457142Y-72190476D01*
X169504761Y-72238095D01*
X169552380Y-72333333D01*
X169552380Y-72523809D01*
X169504761Y-72619047D01*
X169504761Y-71333333D02*
X169552380Y-71428571D01*
X169552380Y-71619047D01*
X169504761Y-71714285D01*
X169409523Y-71761904D01*
X169028571Y-71761904D01*
X168933333Y-71714285D01*
X168885714Y-71619047D01*
X168885714Y-71428571D01*
X168933333Y-71333333D01*
X169028571Y-71285714D01*
X169123809Y-71285714D01*
X169219047Y-71761904D01*
X169504761Y-70142857D02*
X169552380Y-70000000D01*
X169552380Y-69761904D01*
X169504761Y-69666666D01*
X169457142Y-69619047D01*
X169361904Y-69571428D01*
X169266666Y-69571428D01*
X169171428Y-69619047D01*
X169123809Y-69666666D01*
X169076190Y-69761904D01*
X169028571Y-69952380D01*
X168980952Y-70047619D01*
X168933333Y-70095238D01*
X168838095Y-70142857D01*
X168742857Y-70142857D01*
X168647619Y-70095238D01*
X168600000Y-70047619D01*
X168552380Y-69952380D01*
X168552380Y-69714285D01*
X168600000Y-69571428D01*
X169504761Y-68761904D02*
X169552380Y-68857142D01*
X169552380Y-69047619D01*
X169504761Y-69142857D01*
X169409523Y-69190476D01*
X169028571Y-69190476D01*
X168933333Y-69142857D01*
X168885714Y-69047619D01*
X168885714Y-68857142D01*
X168933333Y-68761904D01*
X169028571Y-68714285D01*
X169123809Y-68714285D01*
X169219047Y-69190476D01*
X169552380Y-68285714D02*
X168885714Y-68285714D01*
X169076190Y-68285714D02*
X168980952Y-68238095D01*
X168933333Y-68190476D01*
X168885714Y-68095238D01*
X168885714Y-68000000D01*
X168885714Y-67761904D02*
X169552380Y-67523809D01*
X168885714Y-67285714D01*
X169552380Y-66761904D02*
X169504761Y-66857142D01*
X169457142Y-66904761D01*
X169361904Y-66952380D01*
X169076190Y-66952380D01*
X168980952Y-66904761D01*
X168933333Y-66857142D01*
X168885714Y-66761904D01*
X168885714Y-66619047D01*
X168933333Y-66523809D01*
X168980952Y-66476190D01*
X169076190Y-66428571D01*
X169361904Y-66428571D01*
X169457142Y-66476190D01*
X169504761Y-66523809D01*
X169552380Y-66619047D01*
X169552380Y-66761904D01*
X168452380Y-83169047D02*
X168452380Y-82597619D01*
X169452380Y-82883333D02*
X168452380Y-82883333D01*
X169452380Y-82121428D02*
X169404761Y-82216666D01*
X169357142Y-82264285D01*
X169261904Y-82311904D01*
X168976190Y-82311904D01*
X168880952Y-82264285D01*
X168833333Y-82216666D01*
X168785714Y-82121428D01*
X168785714Y-81978571D01*
X168833333Y-81883333D01*
X168880952Y-81835714D01*
X168976190Y-81788095D01*
X169261904Y-81788095D01*
X169357142Y-81835714D01*
X169404761Y-81883333D01*
X169452380Y-81978571D01*
X169452380Y-82121428D01*
X168785714Y-81359523D02*
X169785714Y-81359523D01*
X168833333Y-81359523D02*
X168785714Y-81264285D01*
X168785714Y-81073809D01*
X168833333Y-80978571D01*
X168880952Y-80930952D01*
X168976190Y-80883333D01*
X169261904Y-80883333D01*
X169357142Y-80930952D01*
X169404761Y-80978571D01*
X169452380Y-81073809D01*
X169452380Y-81264285D01*
X169404761Y-81359523D01*
X169404761Y-79740476D02*
X169452380Y-79597619D01*
X169452380Y-79359523D01*
X169404761Y-79264285D01*
X169357142Y-79216666D01*
X169261904Y-79169047D01*
X169166666Y-79169047D01*
X169071428Y-79216666D01*
X169023809Y-79264285D01*
X168976190Y-79359523D01*
X168928571Y-79550000D01*
X168880952Y-79645238D01*
X168833333Y-79692857D01*
X168738095Y-79740476D01*
X168642857Y-79740476D01*
X168547619Y-79692857D01*
X168500000Y-79645238D01*
X168452380Y-79550000D01*
X168452380Y-79311904D01*
X168500000Y-79169047D01*
X169404761Y-78359523D02*
X169452380Y-78454761D01*
X169452380Y-78645238D01*
X169404761Y-78740476D01*
X169309523Y-78788095D01*
X168928571Y-78788095D01*
X168833333Y-78740476D01*
X168785714Y-78645238D01*
X168785714Y-78454761D01*
X168833333Y-78359523D01*
X168928571Y-78311904D01*
X169023809Y-78311904D01*
X169119047Y-78788095D01*
X169452380Y-77883333D02*
X168785714Y-77883333D01*
X168976190Y-77883333D02*
X168880952Y-77835714D01*
X168833333Y-77788095D01*
X168785714Y-77692857D01*
X168785714Y-77597619D01*
X168785714Y-77359523D02*
X169452380Y-77121428D01*
X168785714Y-76883333D01*
X169452380Y-76359523D02*
X169404761Y-76454761D01*
X169357142Y-76502380D01*
X169261904Y-76550000D01*
X168976190Y-76550000D01*
X168880952Y-76502380D01*
X168833333Y-76454761D01*
X168785714Y-76359523D01*
X168785714Y-76216666D01*
X168833333Y-76121428D01*
X168880952Y-76073809D01*
X168976190Y-76026190D01*
X169261904Y-76026190D01*
X169357142Y-76073809D01*
X169404761Y-76121428D01*
X169452380Y-76216666D01*
X169452380Y-76359523D01*
X142457142Y-53702380D02*
X141980952Y-53702380D01*
X141980952Y-52702380D01*
X142790476Y-53178571D02*
X143123809Y-53178571D01*
X143266666Y-53702380D02*
X142790476Y-53702380D01*
X142790476Y-52702380D01*
X143266666Y-52702380D01*
X143695238Y-53702380D02*
X143695238Y-52702380D01*
X143933333Y-52702380D01*
X144076190Y-52750000D01*
X144171428Y-52845238D01*
X144219047Y-52940476D01*
X144266666Y-53130952D01*
X144266666Y-53273809D01*
X144219047Y-53464285D01*
X144171428Y-53559523D01*
X144076190Y-53654761D01*
X143933333Y-53702380D01*
X143695238Y-53702380D01*
X129178571Y-52702380D02*
X129750000Y-52702380D01*
X129464285Y-53702380D02*
X129464285Y-52702380D01*
X130226190Y-53702380D02*
X130130952Y-53654761D01*
X130083333Y-53607142D01*
X130035714Y-53511904D01*
X130035714Y-53226190D01*
X130083333Y-53130952D01*
X130130952Y-53083333D01*
X130226190Y-53035714D01*
X130369047Y-53035714D01*
X130464285Y-53083333D01*
X130511904Y-53130952D01*
X130559523Y-53226190D01*
X130559523Y-53511904D01*
X130511904Y-53607142D01*
X130464285Y-53654761D01*
X130369047Y-53702380D01*
X130226190Y-53702380D01*
X131416666Y-53035714D02*
X131416666Y-53702380D01*
X130988095Y-53035714D02*
X130988095Y-53559523D01*
X131035714Y-53654761D01*
X131130952Y-53702380D01*
X131273809Y-53702380D01*
X131369047Y-53654761D01*
X131416666Y-53607142D01*
X132321428Y-53654761D02*
X132226190Y-53702380D01*
X132035714Y-53702380D01*
X131940476Y-53654761D01*
X131892857Y-53607142D01*
X131845238Y-53511904D01*
X131845238Y-53226190D01*
X131892857Y-53130952D01*
X131940476Y-53083333D01*
X132035714Y-53035714D01*
X132226190Y-53035714D01*
X132321428Y-53083333D01*
X132750000Y-53702380D02*
X132750000Y-52702380D01*
X133178571Y-53702380D02*
X133178571Y-53178571D01*
X133130952Y-53083333D01*
X133035714Y-53035714D01*
X132892857Y-53035714D01*
X132797619Y-53083333D01*
X132750000Y-53130952D01*
X139288095Y-70407142D02*
X139240476Y-70454761D01*
X139097619Y-70502380D01*
X139002380Y-70502380D01*
X138859523Y-70454761D01*
X138764285Y-70359523D01*
X138716666Y-70264285D01*
X138669047Y-70073809D01*
X138669047Y-69930952D01*
X138716666Y-69740476D01*
X138764285Y-69645238D01*
X138859523Y-69550000D01*
X139002380Y-69502380D01*
X139097619Y-69502380D01*
X139240476Y-69550000D01*
X139288095Y-69597619D01*
X139716666Y-69502380D02*
X139716666Y-70311904D01*
X139764285Y-70407142D01*
X139811904Y-70454761D01*
X139907142Y-70502380D01*
X140097619Y-70502380D01*
X140192857Y-70454761D01*
X140240476Y-70407142D01*
X140288095Y-70311904D01*
X140288095Y-69502380D01*
X141097619Y-69978571D02*
X141240476Y-70026190D01*
X141288095Y-70073809D01*
X141335714Y-70169047D01*
X141335714Y-70311904D01*
X141288095Y-70407142D01*
X141240476Y-70454761D01*
X141145238Y-70502380D01*
X140764285Y-70502380D01*
X140764285Y-69502380D01*
X141097619Y-69502380D01*
X141192857Y-69550000D01*
X141240476Y-69597619D01*
X141288095Y-69692857D01*
X141288095Y-69788095D01*
X141240476Y-69883333D01*
X141192857Y-69930952D01*
X141097619Y-69978571D01*
X140764285Y-69978571D01*
X141954761Y-69502380D02*
X142145238Y-69502380D01*
X142240476Y-69550000D01*
X142335714Y-69645238D01*
X142383333Y-69835714D01*
X142383333Y-70169047D01*
X142335714Y-70359523D01*
X142240476Y-70454761D01*
X142145238Y-70502380D01*
X141954761Y-70502380D01*
X141859523Y-70454761D01*
X141764285Y-70359523D01*
X141716666Y-70169047D01*
X141716666Y-69835714D01*
X141764285Y-69645238D01*
X141859523Y-69550000D01*
X141954761Y-69502380D01*
X142669047Y-69502380D02*
X143240476Y-69502380D01*
X142954761Y-70502380D02*
X142954761Y-69502380D01*
X143573809Y-70502380D02*
X143573809Y-69835714D01*
X143573809Y-69502380D02*
X143526190Y-69550000D01*
X143573809Y-69597619D01*
X143621428Y-69550000D01*
X143573809Y-69502380D01*
X143573809Y-69597619D01*
X144050000Y-69835714D02*
X144050000Y-70502380D01*
X144050000Y-69930952D02*
X144097619Y-69883333D01*
X144192857Y-69835714D01*
X144335714Y-69835714D01*
X144430952Y-69883333D01*
X144478571Y-69978571D01*
X144478571Y-70502380D01*
X145097619Y-70502380D02*
X145002380Y-70454761D01*
X144954761Y-70407142D01*
X144907142Y-70311904D01*
X144907142Y-70026190D01*
X144954761Y-69930952D01*
X145002380Y-69883333D01*
X145097619Y-69835714D01*
X145240476Y-69835714D01*
X145335714Y-69883333D01*
X145383333Y-69930952D01*
X145430952Y-70026190D01*
X145430952Y-70311904D01*
X145383333Y-70407142D01*
X145335714Y-70454761D01*
X145240476Y-70502380D01*
X145097619Y-70502380D01*
X141788095Y-71485714D02*
X142169047Y-71485714D01*
X141930952Y-71152380D02*
X141930952Y-72009523D01*
X141978571Y-72104761D01*
X142073809Y-72152380D01*
X142169047Y-72152380D01*
X142645238Y-72152380D02*
X142550000Y-72104761D01*
X142502380Y-72057142D01*
X142454761Y-71961904D01*
X142454761Y-71676190D01*
X142502380Y-71580952D01*
X142550000Y-71533333D01*
X142645238Y-71485714D01*
X142788095Y-71485714D01*
X142883333Y-71533333D01*
X142930952Y-71580952D01*
X142978571Y-71676190D01*
X142978571Y-71961904D01*
X142930952Y-72057142D01*
X142883333Y-72104761D01*
X142788095Y-72152380D01*
X142645238Y-72152380D01*
X137478571Y-73802380D02*
X137145238Y-73326190D01*
X136907142Y-73802380D02*
X136907142Y-72802380D01*
X137288095Y-72802380D01*
X137383333Y-72850000D01*
X137430952Y-72897619D01*
X137478571Y-72992857D01*
X137478571Y-73135714D01*
X137430952Y-73230952D01*
X137383333Y-73278571D01*
X137288095Y-73326190D01*
X136907142Y-73326190D01*
X137907142Y-73802380D02*
X137907142Y-72802380D01*
X138288095Y-72802380D01*
X138383333Y-72850000D01*
X138430952Y-72897619D01*
X138478571Y-72992857D01*
X138478571Y-73135714D01*
X138430952Y-73230952D01*
X138383333Y-73278571D01*
X138288095Y-73326190D01*
X137907142Y-73326190D01*
X138907142Y-73802380D02*
X138907142Y-73135714D01*
X138907142Y-72802380D02*
X138859523Y-72850000D01*
X138907142Y-72897619D01*
X138954761Y-72850000D01*
X138907142Y-72802380D01*
X138907142Y-72897619D01*
X140050000Y-72802380D02*
X140716666Y-72802380D01*
X140050000Y-73802380D01*
X140716666Y-73802380D01*
X141097619Y-73278571D02*
X141430952Y-73278571D01*
X141573809Y-73802380D02*
X141097619Y-73802380D01*
X141097619Y-72802380D01*
X141573809Y-72802380D01*
X142573809Y-73802380D02*
X142240476Y-73326190D01*
X142002380Y-73802380D02*
X142002380Y-72802380D01*
X142383333Y-72802380D01*
X142478571Y-72850000D01*
X142526190Y-72897619D01*
X142573809Y-72992857D01*
X142573809Y-73135714D01*
X142526190Y-73230952D01*
X142478571Y-73278571D01*
X142383333Y-73326190D01*
X142002380Y-73326190D01*
X143192857Y-72802380D02*
X143383333Y-72802380D01*
X143478571Y-72850000D01*
X143573809Y-72945238D01*
X143621428Y-73135714D01*
X143621428Y-73469047D01*
X143573809Y-73659523D01*
X143478571Y-73754761D01*
X143383333Y-73802380D01*
X143192857Y-73802380D01*
X143097619Y-73754761D01*
X143002380Y-73659523D01*
X142954761Y-73469047D01*
X142954761Y-73135714D01*
X143002380Y-72945238D01*
X143097619Y-72850000D01*
X143192857Y-72802380D01*
X144764285Y-72897619D02*
X144811904Y-72850000D01*
X144907142Y-72802380D01*
X145145238Y-72802380D01*
X145240476Y-72850000D01*
X145288095Y-72897619D01*
X145335714Y-72992857D01*
X145335714Y-73088095D01*
X145288095Y-73230952D01*
X144716666Y-73802380D01*
X145335714Y-73802380D01*
X146430952Y-72802380D02*
X146669047Y-73802380D01*
X146859523Y-73088095D01*
X147050000Y-73802380D01*
X147288095Y-72802380D01*
X138978571Y-75452380D02*
X138978571Y-74452380D01*
X139454761Y-74785714D02*
X139454761Y-75452380D01*
X139454761Y-74880952D02*
X139502380Y-74833333D01*
X139597619Y-74785714D01*
X139740476Y-74785714D01*
X139835714Y-74833333D01*
X139883333Y-74928571D01*
X139883333Y-75452380D01*
X140216666Y-74785714D02*
X140597619Y-74785714D01*
X140359523Y-74452380D02*
X140359523Y-75309523D01*
X140407142Y-75404761D01*
X140502380Y-75452380D01*
X140597619Y-75452380D01*
X141311904Y-75404761D02*
X141216666Y-75452380D01*
X141026190Y-75452380D01*
X140930952Y-75404761D01*
X140883333Y-75309523D01*
X140883333Y-74928571D01*
X140930952Y-74833333D01*
X141026190Y-74785714D01*
X141216666Y-74785714D01*
X141311904Y-74833333D01*
X141359523Y-74928571D01*
X141359523Y-75023809D01*
X140883333Y-75119047D01*
X141788095Y-75452380D02*
X141788095Y-74785714D01*
X141788095Y-74976190D02*
X141835714Y-74880952D01*
X141883333Y-74833333D01*
X141978571Y-74785714D01*
X142073809Y-74785714D01*
X142264285Y-74785714D02*
X142645238Y-74785714D01*
X142407142Y-75452380D02*
X142407142Y-74595238D01*
X142454761Y-74500000D01*
X142550000Y-74452380D01*
X142645238Y-74452380D01*
X143407142Y-75452380D02*
X143407142Y-74928571D01*
X143359523Y-74833333D01*
X143264285Y-74785714D01*
X143073809Y-74785714D01*
X142978571Y-74833333D01*
X143407142Y-75404761D02*
X143311904Y-75452380D01*
X143073809Y-75452380D01*
X142978571Y-75404761D01*
X142930952Y-75309523D01*
X142930952Y-75214285D01*
X142978571Y-75119047D01*
X143073809Y-75071428D01*
X143311904Y-75071428D01*
X143407142Y-75023809D01*
X144311904Y-75404761D02*
X144216666Y-75452380D01*
X144026190Y-75452380D01*
X143930952Y-75404761D01*
X143883333Y-75357142D01*
X143835714Y-75261904D01*
X143835714Y-74976190D01*
X143883333Y-74880952D01*
X143930952Y-74833333D01*
X144026190Y-74785714D01*
X144216666Y-74785714D01*
X144311904Y-74833333D01*
X145121428Y-75404761D02*
X145026190Y-75452380D01*
X144835714Y-75452380D01*
X144740476Y-75404761D01*
X144692857Y-75309523D01*
X144692857Y-74928571D01*
X144740476Y-74833333D01*
X144835714Y-74785714D01*
X145026190Y-74785714D01*
X145121428Y-74833333D01*
X145169047Y-74928571D01*
X145169047Y-75023809D01*
X144692857Y-75119047D01*
X140454761Y-76578571D02*
X140597619Y-76626190D01*
X140645238Y-76673809D01*
X140692857Y-76769047D01*
X140692857Y-76911904D01*
X140645238Y-77007142D01*
X140597619Y-77054761D01*
X140502380Y-77102380D01*
X140121428Y-77102380D01*
X140121428Y-76102380D01*
X140454761Y-76102380D01*
X140550000Y-76150000D01*
X140597619Y-76197619D01*
X140645238Y-76292857D01*
X140645238Y-76388095D01*
X140597619Y-76483333D01*
X140550000Y-76530952D01*
X140454761Y-76578571D01*
X140121428Y-76578571D01*
X141264285Y-77102380D02*
X141169047Y-77054761D01*
X141121428Y-77007142D01*
X141073809Y-76911904D01*
X141073809Y-76626190D01*
X141121428Y-76530952D01*
X141169047Y-76483333D01*
X141264285Y-76435714D01*
X141407142Y-76435714D01*
X141502380Y-76483333D01*
X141550000Y-76530952D01*
X141597619Y-76626190D01*
X141597619Y-76911904D01*
X141550000Y-77007142D01*
X141502380Y-77054761D01*
X141407142Y-77102380D01*
X141264285Y-77102380D01*
X142454761Y-77102380D02*
X142454761Y-76578571D01*
X142407142Y-76483333D01*
X142311904Y-76435714D01*
X142121428Y-76435714D01*
X142026190Y-76483333D01*
X142454761Y-77054761D02*
X142359523Y-77102380D01*
X142121428Y-77102380D01*
X142026190Y-77054761D01*
X141978571Y-76959523D01*
X141978571Y-76864285D01*
X142026190Y-76769047D01*
X142121428Y-76721428D01*
X142359523Y-76721428D01*
X142454761Y-76673809D01*
X142930952Y-77102380D02*
X142930952Y-76435714D01*
X142930952Y-76626190D02*
X142978571Y-76530952D01*
X143026190Y-76483333D01*
X143121428Y-76435714D01*
X143216666Y-76435714D01*
X143978571Y-77102380D02*
X143978571Y-76102380D01*
X143978571Y-77054761D02*
X143883333Y-77102380D01*
X143692857Y-77102380D01*
X143597619Y-77054761D01*
X143550000Y-77007142D01*
X143502380Y-76911904D01*
X143502380Y-76626190D01*
X143550000Y-76530952D01*
X143597619Y-76483333D01*
X143692857Y-76435714D01*
X143883333Y-76435714D01*
X143978571Y-76483333D01*
D11*
%TO.C,J6*%
X158610000Y-89310000D02*
X158610000Y-83340000D01*
X158610000Y-83340000D02*
X150990000Y-83340000D01*
X150990000Y-83340000D02*
X150990000Y-89310000D01*
X150990000Y-89310000D02*
X158610000Y-89310000D01*
X155300000Y-89300000D02*
X155300000Y-88550000D01*
X155300000Y-88550000D02*
X154300000Y-88550000D01*
X154300000Y-88550000D02*
X154300000Y-89300000D01*
X154300000Y-89300000D02*
X155300000Y-89300000D01*
X158600000Y-89300000D02*
X158600000Y-88550000D01*
X158600000Y-88550000D02*
X156800000Y-88550000D01*
X156800000Y-88550000D02*
X156800000Y-89300000D01*
X156800000Y-89300000D02*
X158600000Y-89300000D01*
X152800000Y-89300000D02*
X152800000Y-88550000D01*
X152800000Y-88550000D02*
X151000000Y-88550000D01*
X151000000Y-88550000D02*
X151000000Y-89300000D01*
X151000000Y-89300000D02*
X152800000Y-89300000D01*
X158600000Y-87050000D02*
X157850000Y-87050000D01*
X157850000Y-87050000D02*
X157850000Y-84100000D01*
X157850000Y-84100000D02*
X154800000Y-84100000D01*
X151000000Y-87050000D02*
X151750000Y-87050000D01*
X151750000Y-87050000D02*
X151750000Y-84100000D01*
X151750000Y-84100000D02*
X154800000Y-84100000D01*
X157650000Y-89600000D02*
X158900000Y-89600000D01*
X158900000Y-89600000D02*
X158900000Y-88350000D01*
%TO.C,J4*%
X143660000Y-89360000D02*
X143660000Y-83390000D01*
X143660000Y-83390000D02*
X136040000Y-83390000D01*
X136040000Y-83390000D02*
X136040000Y-89360000D01*
X136040000Y-89360000D02*
X143660000Y-89360000D01*
X140350000Y-89350000D02*
X140350000Y-88600000D01*
X140350000Y-88600000D02*
X139350000Y-88600000D01*
X139350000Y-88600000D02*
X139350000Y-89350000D01*
X139350000Y-89350000D02*
X140350000Y-89350000D01*
X143650000Y-89350000D02*
X143650000Y-88600000D01*
X143650000Y-88600000D02*
X141850000Y-88600000D01*
X141850000Y-88600000D02*
X141850000Y-89350000D01*
X141850000Y-89350000D02*
X143650000Y-89350000D01*
X137850000Y-89350000D02*
X137850000Y-88600000D01*
X137850000Y-88600000D02*
X136050000Y-88600000D01*
X136050000Y-88600000D02*
X136050000Y-89350000D01*
X136050000Y-89350000D02*
X137850000Y-89350000D01*
X143650000Y-87100000D02*
X142900000Y-87100000D01*
X142900000Y-87100000D02*
X142900000Y-84150000D01*
X142900000Y-84150000D02*
X139850000Y-84150000D01*
X136050000Y-87100000D02*
X136800000Y-87100000D01*
X136800000Y-87100000D02*
X136800000Y-84150000D01*
X136800000Y-84150000D02*
X139850000Y-84150000D01*
X142700000Y-89650000D02*
X143950000Y-89650000D01*
X143950000Y-89650000D02*
X143950000Y-88400000D01*
%TO.C,J2*%
X108410000Y-67440000D02*
X102440000Y-67440000D01*
X102440000Y-67440000D02*
X102440000Y-75060000D01*
X102440000Y-75060000D02*
X108410000Y-75060000D01*
X108410000Y-75060000D02*
X108410000Y-67440000D01*
X108400000Y-70750000D02*
X107650000Y-70750000D01*
X107650000Y-70750000D02*
X107650000Y-71750000D01*
X107650000Y-71750000D02*
X108400000Y-71750000D01*
X108400000Y-71750000D02*
X108400000Y-70750000D01*
X108400000Y-67450000D02*
X107650000Y-67450000D01*
X107650000Y-67450000D02*
X107650000Y-69250000D01*
X107650000Y-69250000D02*
X108400000Y-69250000D01*
X108400000Y-69250000D02*
X108400000Y-67450000D01*
X108400000Y-73250000D02*
X107650000Y-73250000D01*
X107650000Y-73250000D02*
X107650000Y-75050000D01*
X107650000Y-75050000D02*
X108400000Y-75050000D01*
X108400000Y-75050000D02*
X108400000Y-73250000D01*
X106150000Y-67450000D02*
X106150000Y-68200000D01*
X106150000Y-68200000D02*
X103200000Y-68200000D01*
X103200000Y-68200000D02*
X103200000Y-71250000D01*
X106150000Y-75050000D02*
X106150000Y-74300000D01*
X106150000Y-74300000D02*
X103200000Y-74300000D01*
X103200000Y-74300000D02*
X103200000Y-71250000D01*
X108700000Y-68400000D02*
X108700000Y-67150000D01*
X108700000Y-67150000D02*
X107450000Y-67150000D01*
%TO.C,J3*%
X116160000Y-67340000D02*
X110190000Y-67340000D01*
X110190000Y-67340000D02*
X110190000Y-84960000D01*
X110190000Y-84960000D02*
X116160000Y-84960000D01*
X116160000Y-84960000D02*
X116160000Y-67340000D01*
X116150000Y-70650000D02*
X115400000Y-70650000D01*
X115400000Y-70650000D02*
X115400000Y-81650000D01*
X115400000Y-81650000D02*
X116150000Y-81650000D01*
X116150000Y-81650000D02*
X116150000Y-70650000D01*
X116150000Y-67350000D02*
X115400000Y-67350000D01*
X115400000Y-67350000D02*
X115400000Y-69150000D01*
X115400000Y-69150000D02*
X116150000Y-69150000D01*
X116150000Y-69150000D02*
X116150000Y-67350000D01*
X116150000Y-83150000D02*
X115400000Y-83150000D01*
X115400000Y-83150000D02*
X115400000Y-84950000D01*
X115400000Y-84950000D02*
X116150000Y-84950000D01*
X116150000Y-84950000D02*
X116150000Y-83150000D01*
X113900000Y-67350000D02*
X113900000Y-68100000D01*
X113900000Y-68100000D02*
X110950000Y-68100000D01*
X110950000Y-68100000D02*
X110950000Y-76150000D01*
X113900000Y-84950000D02*
X113900000Y-84200000D01*
X113900000Y-84200000D02*
X110950000Y-84200000D01*
X110950000Y-84200000D02*
X110950000Y-76150000D01*
X116450000Y-68300000D02*
X116450000Y-67050000D01*
X116450000Y-67050000D02*
X115200000Y-67050000D01*
%TO.C,J8*%
X164240000Y-75670000D02*
X164240000Y-83410000D01*
X164240000Y-83410000D02*
X166900000Y-83410000D01*
X166900000Y-83410000D02*
X166900000Y-75670000D01*
X166900000Y-75670000D02*
X164240000Y-75670000D01*
X166900000Y-76620000D02*
X172900000Y-76620000D01*
X172900000Y-76620000D02*
X172900000Y-77380000D01*
X172900000Y-77380000D02*
X166900000Y-77380000D01*
X166900000Y-76680000D02*
X172900000Y-76680000D01*
X166900000Y-76800000D02*
X172900000Y-76800000D01*
X166900000Y-76920000D02*
X172900000Y-76920000D01*
X166900000Y-77040000D02*
X172900000Y-77040000D01*
X166900000Y-77160000D02*
X172900000Y-77160000D01*
X166900000Y-77280000D02*
X172900000Y-77280000D01*
X163910000Y-76620000D02*
X164240000Y-76620000D01*
X163910000Y-77380000D02*
X164240000Y-77380000D01*
X164240000Y-78270000D02*
X166900000Y-78270000D01*
X166900000Y-79160000D02*
X172900000Y-79160000D01*
X172900000Y-79160000D02*
X172900000Y-79920000D01*
X172900000Y-79920000D02*
X166900000Y-79920000D01*
X163842929Y-79160000D02*
X164240000Y-79160000D01*
X163842929Y-79920000D02*
X164240000Y-79920000D01*
X164240000Y-80810000D02*
X166900000Y-80810000D01*
X166900000Y-81700000D02*
X172900000Y-81700000D01*
X172900000Y-81700000D02*
X172900000Y-82460000D01*
X172900000Y-82460000D02*
X166900000Y-82460000D01*
X163842929Y-81700000D02*
X164240000Y-81700000D01*
X163842929Y-82460000D02*
X164240000Y-82460000D01*
X161530000Y-77000000D02*
X161530000Y-75730000D01*
X161530000Y-75730000D02*
X162800000Y-75730000D01*
%TO.C,J7*%
X164240000Y-66570000D02*
X164240000Y-74310000D01*
X164240000Y-74310000D02*
X166900000Y-74310000D01*
X166900000Y-74310000D02*
X166900000Y-66570000D01*
X166900000Y-66570000D02*
X164240000Y-66570000D01*
X166900000Y-67520000D02*
X172900000Y-67520000D01*
X172900000Y-67520000D02*
X172900000Y-68280000D01*
X172900000Y-68280000D02*
X166900000Y-68280000D01*
X166900000Y-67580000D02*
X172900000Y-67580000D01*
X166900000Y-67700000D02*
X172900000Y-67700000D01*
X166900000Y-67820000D02*
X172900000Y-67820000D01*
X166900000Y-67940000D02*
X172900000Y-67940000D01*
X166900000Y-68060000D02*
X172900000Y-68060000D01*
X166900000Y-68180000D02*
X172900000Y-68180000D01*
X163910000Y-67520000D02*
X164240000Y-67520000D01*
X163910000Y-68280000D02*
X164240000Y-68280000D01*
X164240000Y-69170000D02*
X166900000Y-69170000D01*
X166900000Y-70060000D02*
X172900000Y-70060000D01*
X172900000Y-70060000D02*
X172900000Y-70820000D01*
X172900000Y-70820000D02*
X166900000Y-70820000D01*
X163842929Y-70060000D02*
X164240000Y-70060000D01*
X163842929Y-70820000D02*
X164240000Y-70820000D01*
X164240000Y-71710000D02*
X166900000Y-71710000D01*
X166900000Y-72600000D02*
X172900000Y-72600000D01*
X172900000Y-72600000D02*
X172900000Y-73360000D01*
X172900000Y-73360000D02*
X166900000Y-73360000D01*
X163842929Y-72600000D02*
X164240000Y-72600000D01*
X163842929Y-73360000D02*
X164240000Y-73360000D01*
X161530000Y-67900000D02*
X161530000Y-66630000D01*
X161530000Y-66630000D02*
X162800000Y-66630000D01*
%TO.C,U1*%
X106290000Y-56900000D02*
X106290000Y-59350000D01*
X109510000Y-58700000D02*
X109510000Y-56900000D01*
%TO.C,C3*%
X110365000Y-57538748D02*
X110365000Y-58061252D01*
X111835000Y-57538748D02*
X111835000Y-58061252D01*
%TO.C,R3*%
X130472936Y-59835000D02*
X130927064Y-59835000D01*
X130472936Y-58365000D02*
X130927064Y-58365000D01*
%TO.C,R1*%
X145215000Y-83622936D02*
X145215000Y-84077064D01*
X146685000Y-83622936D02*
X146685000Y-84077064D01*
%TO.C,D3*%
X124940000Y-60060000D02*
X127800000Y-60060000D01*
X124940000Y-58140000D02*
X124940000Y-60060000D01*
X127800000Y-58140000D02*
X124940000Y-58140000D01*
%TO.C,D1*%
X140590000Y-82410000D02*
X143450000Y-82410000D01*
X140590000Y-80490000D02*
X140590000Y-82410000D01*
X143450000Y-80490000D02*
X140590000Y-80490000D01*
%TO.C,C7*%
X160320000Y-69700000D02*
G75*
G03*
X160320000Y-69700000I-2620000J0D01*
G01*
%TO.C,C6*%
X160220000Y-78800000D02*
G75*
G03*
X160220000Y-78800000I-2620000J0D01*
G01*
%TO.C,C1*%
X107520000Y-80800000D02*
G75*
G03*
X107520000Y-80800000I-2620000J0D01*
G01*
%TO.C,C5*%
X112790000Y-56588748D02*
X112790000Y-58011252D01*
X114610000Y-56588748D02*
X114610000Y-58011252D01*
%TO.C,R2*%
X115765000Y-56372936D02*
X115765000Y-56827064D01*
X117235000Y-56372936D02*
X117235000Y-56827064D01*
%TO.C,J5*%
X144720000Y-89280000D02*
X144720000Y-87950000D01*
X146050000Y-89280000D02*
X144720000Y-89280000D01*
X147320000Y-89280000D02*
X147320000Y-86620000D01*
X147320000Y-86620000D02*
X149920000Y-86620000D01*
X147320000Y-89280000D02*
X149920000Y-89280000D01*
X149920000Y-89280000D02*
X149920000Y-86620000D01*
%TO.C,D2*%
X120435000Y-59610000D02*
X120435000Y-55550000D01*
X118165000Y-59610000D02*
X120435000Y-59610000D01*
X118165000Y-55550000D02*
X118165000Y-59610000D01*
%TO.C,J6*%
D10*
X154366666Y-81752380D02*
X154366666Y-82466666D01*
X154319047Y-82609523D01*
X154223809Y-82704761D01*
X154080952Y-82752380D01*
X153985714Y-82752380D01*
X155271428Y-81752380D02*
X155080952Y-81752380D01*
X154985714Y-81800000D01*
X154938095Y-81847619D01*
X154842857Y-81990476D01*
X154795238Y-82180952D01*
X154795238Y-82561904D01*
X154842857Y-82657142D01*
X154890476Y-82704761D01*
X154985714Y-82752380D01*
X155176190Y-82752380D01*
X155271428Y-82704761D01*
X155319047Y-82657142D01*
X155366666Y-82561904D01*
X155366666Y-82323809D01*
X155319047Y-82228571D01*
X155271428Y-82180952D01*
X155176190Y-82133333D01*
X154985714Y-82133333D01*
X154890476Y-82180952D01*
X154842857Y-82228571D01*
X154795238Y-82323809D01*
%TO.C,J4*%
X139016666Y-81502380D02*
X139016666Y-82216666D01*
X138969047Y-82359523D01*
X138873809Y-82454761D01*
X138730952Y-82502380D01*
X138635714Y-82502380D01*
X139921428Y-81835714D02*
X139921428Y-82502380D01*
X139683333Y-81454761D02*
X139445238Y-82169047D01*
X140064285Y-82169047D01*
%TO.C,J2*%
X101566666Y-75702380D02*
X101566666Y-76416666D01*
X101519047Y-76559523D01*
X101423809Y-76654761D01*
X101280952Y-76702380D01*
X101185714Y-76702380D01*
X101995238Y-75797619D02*
X102042857Y-75750000D01*
X102138095Y-75702380D01*
X102376190Y-75702380D01*
X102471428Y-75750000D01*
X102519047Y-75797619D01*
X102566666Y-75892857D01*
X102566666Y-75988095D01*
X102519047Y-76130952D01*
X101947619Y-76702380D01*
X102566666Y-76702380D01*
%TO.C,J3*%
X112866666Y-85852380D02*
X112866666Y-86566666D01*
X112819047Y-86709523D01*
X112723809Y-86804761D01*
X112580952Y-86852380D01*
X112485714Y-86852380D01*
X113247619Y-85852380D02*
X113866666Y-85852380D01*
X113533333Y-86233333D01*
X113676190Y-86233333D01*
X113771428Y-86280952D01*
X113819047Y-86328571D01*
X113866666Y-86423809D01*
X113866666Y-86661904D01*
X113819047Y-86757142D01*
X113771428Y-86804761D01*
X113676190Y-86852380D01*
X113390476Y-86852380D01*
X113295238Y-86804761D01*
X113247619Y-86757142D01*
%TO.C,J8*%
X159566666Y-75302380D02*
X159566666Y-76016666D01*
X159519047Y-76159523D01*
X159423809Y-76254761D01*
X159280952Y-76302380D01*
X159185714Y-76302380D01*
X160185714Y-75730952D02*
X160090476Y-75683333D01*
X160042857Y-75635714D01*
X159995238Y-75540476D01*
X159995238Y-75492857D01*
X160042857Y-75397619D01*
X160090476Y-75350000D01*
X160185714Y-75302380D01*
X160376190Y-75302380D01*
X160471428Y-75350000D01*
X160519047Y-75397619D01*
X160566666Y-75492857D01*
X160566666Y-75540476D01*
X160519047Y-75635714D01*
X160471428Y-75683333D01*
X160376190Y-75730952D01*
X160185714Y-75730952D01*
X160090476Y-75778571D01*
X160042857Y-75826190D01*
X159995238Y-75921428D01*
X159995238Y-76111904D01*
X160042857Y-76207142D01*
X160090476Y-76254761D01*
X160185714Y-76302380D01*
X160376190Y-76302380D01*
X160471428Y-76254761D01*
X160519047Y-76207142D01*
X160566666Y-76111904D01*
X160566666Y-75921428D01*
X160519047Y-75826190D01*
X160471428Y-75778571D01*
X160376190Y-75730952D01*
%TO.C,J7*%
X159666666Y-66252380D02*
X159666666Y-66966666D01*
X159619047Y-67109523D01*
X159523809Y-67204761D01*
X159380952Y-67252380D01*
X159285714Y-67252380D01*
X160047619Y-66252380D02*
X160714285Y-66252380D01*
X160285714Y-67252380D01*
%TO.C,U1*%
X107188095Y-54602380D02*
X107188095Y-55411904D01*
X107235714Y-55507142D01*
X107283333Y-55554761D01*
X107378571Y-55602380D01*
X107569047Y-55602380D01*
X107664285Y-55554761D01*
X107711904Y-55507142D01*
X107759523Y-55411904D01*
X107759523Y-54602380D01*
X108759523Y-55602380D02*
X108188095Y-55602380D01*
X108473809Y-55602380D02*
X108473809Y-54602380D01*
X108378571Y-54745238D01*
X108283333Y-54840476D01*
X108188095Y-54888095D01*
%TO.C,C3*%
X111033333Y-55607142D02*
X110985714Y-55654761D01*
X110842857Y-55702380D01*
X110747619Y-55702380D01*
X110604761Y-55654761D01*
X110509523Y-55559523D01*
X110461904Y-55464285D01*
X110414285Y-55273809D01*
X110414285Y-55130952D01*
X110461904Y-54940476D01*
X110509523Y-54845238D01*
X110604761Y-54750000D01*
X110747619Y-54702380D01*
X110842857Y-54702380D01*
X110985714Y-54750000D01*
X111033333Y-54797619D01*
X111366666Y-54702380D02*
X111985714Y-54702380D01*
X111652380Y-55083333D01*
X111795238Y-55083333D01*
X111890476Y-55130952D01*
X111938095Y-55178571D01*
X111985714Y-55273809D01*
X111985714Y-55511904D01*
X111938095Y-55607142D01*
X111890476Y-55654761D01*
X111795238Y-55702380D01*
X111509523Y-55702380D01*
X111414285Y-55654761D01*
X111366666Y-55607142D01*
%TO.C,R3*%
X133483333Y-59552380D02*
X133150000Y-59076190D01*
X132911904Y-59552380D02*
X132911904Y-58552380D01*
X133292857Y-58552380D01*
X133388095Y-58600000D01*
X133435714Y-58647619D01*
X133483333Y-58742857D01*
X133483333Y-58885714D01*
X133435714Y-58980952D01*
X133388095Y-59028571D01*
X133292857Y-59076190D01*
X132911904Y-59076190D01*
X133816666Y-58552380D02*
X134435714Y-58552380D01*
X134102380Y-58933333D01*
X134245238Y-58933333D01*
X134340476Y-58980952D01*
X134388095Y-59028571D01*
X134435714Y-59123809D01*
X134435714Y-59361904D01*
X134388095Y-59457142D01*
X134340476Y-59504761D01*
X134245238Y-59552380D01*
X133959523Y-59552380D01*
X133864285Y-59504761D01*
X133816666Y-59457142D01*
%TO.C,R1*%
X145783333Y-81802380D02*
X145450000Y-81326190D01*
X145211904Y-81802380D02*
X145211904Y-80802380D01*
X145592857Y-80802380D01*
X145688095Y-80850000D01*
X145735714Y-80897619D01*
X145783333Y-80992857D01*
X145783333Y-81135714D01*
X145735714Y-81230952D01*
X145688095Y-81278571D01*
X145592857Y-81326190D01*
X145211904Y-81326190D01*
X146735714Y-81802380D02*
X146164285Y-81802380D01*
X146450000Y-81802380D02*
X146450000Y-80802380D01*
X146354761Y-80945238D01*
X146259523Y-81040476D01*
X146164285Y-81088095D01*
%TO.C,D3*%
X122961904Y-59652380D02*
X122961904Y-58652380D01*
X123200000Y-58652380D01*
X123342857Y-58700000D01*
X123438095Y-58795238D01*
X123485714Y-58890476D01*
X123533333Y-59080952D01*
X123533333Y-59223809D01*
X123485714Y-59414285D01*
X123438095Y-59509523D01*
X123342857Y-59604761D01*
X123200000Y-59652380D01*
X122961904Y-59652380D01*
X123866666Y-58652380D02*
X124485714Y-58652380D01*
X124152380Y-59033333D01*
X124295238Y-59033333D01*
X124390476Y-59080952D01*
X124438095Y-59128571D01*
X124485714Y-59223809D01*
X124485714Y-59461904D01*
X124438095Y-59557142D01*
X124390476Y-59604761D01*
X124295238Y-59652380D01*
X124009523Y-59652380D01*
X123914285Y-59604761D01*
X123866666Y-59557142D01*
%TO.C,D1*%
X141811904Y-80102380D02*
X141811904Y-79102380D01*
X142050000Y-79102380D01*
X142192857Y-79150000D01*
X142288095Y-79245238D01*
X142335714Y-79340476D01*
X142383333Y-79530952D01*
X142383333Y-79673809D01*
X142335714Y-79864285D01*
X142288095Y-79959523D01*
X142192857Y-80054761D01*
X142050000Y-80102380D01*
X141811904Y-80102380D01*
X143335714Y-80102380D02*
X142764285Y-80102380D01*
X143050000Y-80102380D02*
X143050000Y-79102380D01*
X142954761Y-79245238D01*
X142859523Y-79340476D01*
X142764285Y-79388095D01*
%TO.C,C7*%
X153733333Y-70207142D02*
X153685714Y-70254761D01*
X153542857Y-70302380D01*
X153447619Y-70302380D01*
X153304761Y-70254761D01*
X153209523Y-70159523D01*
X153161904Y-70064285D01*
X153114285Y-69873809D01*
X153114285Y-69730952D01*
X153161904Y-69540476D01*
X153209523Y-69445238D01*
X153304761Y-69350000D01*
X153447619Y-69302380D01*
X153542857Y-69302380D01*
X153685714Y-69350000D01*
X153733333Y-69397619D01*
X154066666Y-69302380D02*
X154733333Y-69302380D01*
X154304761Y-70302380D01*
%TO.C,C6*%
X153583333Y-79307142D02*
X153535714Y-79354761D01*
X153392857Y-79402380D01*
X153297619Y-79402380D01*
X153154761Y-79354761D01*
X153059523Y-79259523D01*
X153011904Y-79164285D01*
X152964285Y-78973809D01*
X152964285Y-78830952D01*
X153011904Y-78640476D01*
X153059523Y-78545238D01*
X153154761Y-78450000D01*
X153297619Y-78402380D01*
X153392857Y-78402380D01*
X153535714Y-78450000D01*
X153583333Y-78497619D01*
X154440476Y-78402380D02*
X154250000Y-78402380D01*
X154154761Y-78450000D01*
X154107142Y-78497619D01*
X154011904Y-78640476D01*
X153964285Y-78830952D01*
X153964285Y-79211904D01*
X154011904Y-79307142D01*
X154059523Y-79354761D01*
X154154761Y-79402380D01*
X154345238Y-79402380D01*
X154440476Y-79354761D01*
X154488095Y-79307142D01*
X154535714Y-79211904D01*
X154535714Y-78973809D01*
X154488095Y-78878571D01*
X154440476Y-78830952D01*
X154345238Y-78783333D01*
X154154761Y-78783333D01*
X154059523Y-78830952D01*
X154011904Y-78878571D01*
X153964285Y-78973809D01*
%TO.C,C1*%
X104733333Y-77407142D02*
X104685714Y-77454761D01*
X104542857Y-77502380D01*
X104447619Y-77502380D01*
X104304761Y-77454761D01*
X104209523Y-77359523D01*
X104161904Y-77264285D01*
X104114285Y-77073809D01*
X104114285Y-76930952D01*
X104161904Y-76740476D01*
X104209523Y-76645238D01*
X104304761Y-76550000D01*
X104447619Y-76502380D01*
X104542857Y-76502380D01*
X104685714Y-76550000D01*
X104733333Y-76597619D01*
X105685714Y-77502380D02*
X105114285Y-77502380D01*
X105400000Y-77502380D02*
X105400000Y-76502380D01*
X105304761Y-76645238D01*
X105209523Y-76740476D01*
X105114285Y-76788095D01*
%TO.C,H4*%
X161338095Y-89552380D02*
X161338095Y-88552380D01*
X161338095Y-89028571D02*
X161909523Y-89028571D01*
X161909523Y-89552380D02*
X161909523Y-88552380D01*
X162814285Y-88885714D02*
X162814285Y-89552380D01*
X162576190Y-88504761D02*
X162338095Y-89219047D01*
X162957142Y-89219047D01*
%TO.C,H3*%
X103238095Y-89352380D02*
X103238095Y-88352380D01*
X103238095Y-88828571D02*
X103809523Y-88828571D01*
X103809523Y-89352380D02*
X103809523Y-88352380D01*
X104190476Y-88352380D02*
X104809523Y-88352380D01*
X104476190Y-88733333D01*
X104619047Y-88733333D01*
X104714285Y-88780952D01*
X104761904Y-88828571D01*
X104809523Y-88923809D01*
X104809523Y-89161904D01*
X104761904Y-89257142D01*
X104714285Y-89304761D01*
X104619047Y-89352380D01*
X104333333Y-89352380D01*
X104238095Y-89304761D01*
X104190476Y-89257142D01*
%TO.C,H2*%
X161238095Y-61652380D02*
X161238095Y-60652380D01*
X161238095Y-61128571D02*
X161809523Y-61128571D01*
X161809523Y-61652380D02*
X161809523Y-60652380D01*
X162238095Y-60747619D02*
X162285714Y-60700000D01*
X162380952Y-60652380D01*
X162619047Y-60652380D01*
X162714285Y-60700000D01*
X162761904Y-60747619D01*
X162809523Y-60842857D01*
X162809523Y-60938095D01*
X162761904Y-61080952D01*
X162190476Y-61652380D01*
X162809523Y-61652380D01*
%TO.C,H1*%
X103238095Y-61652380D02*
X103238095Y-60652380D01*
X103238095Y-61128571D02*
X103809523Y-61128571D01*
X103809523Y-61652380D02*
X103809523Y-60652380D01*
X104809523Y-61652380D02*
X104238095Y-61652380D01*
X104523809Y-61652380D02*
X104523809Y-60652380D01*
X104428571Y-60795238D01*
X104333333Y-60890476D01*
X104238095Y-60938095D01*
%TO.C,C5*%
X113433333Y-54557142D02*
X113385714Y-54604761D01*
X113242857Y-54652380D01*
X113147619Y-54652380D01*
X113004761Y-54604761D01*
X112909523Y-54509523D01*
X112861904Y-54414285D01*
X112814285Y-54223809D01*
X112814285Y-54080952D01*
X112861904Y-53890476D01*
X112909523Y-53795238D01*
X113004761Y-53700000D01*
X113147619Y-53652380D01*
X113242857Y-53652380D01*
X113385714Y-53700000D01*
X113433333Y-53747619D01*
X114338095Y-53652380D02*
X113861904Y-53652380D01*
X113814285Y-54128571D01*
X113861904Y-54080952D01*
X113957142Y-54033333D01*
X114195238Y-54033333D01*
X114290476Y-54080952D01*
X114338095Y-54128571D01*
X114385714Y-54223809D01*
X114385714Y-54461904D01*
X114338095Y-54557142D01*
X114290476Y-54604761D01*
X114195238Y-54652380D01*
X113957142Y-54652380D01*
X113861904Y-54604761D01*
X113814285Y-54557142D01*
%TO.C,R2*%
X116283333Y-54352380D02*
X115950000Y-53876190D01*
X115711904Y-54352380D02*
X115711904Y-53352380D01*
X116092857Y-53352380D01*
X116188095Y-53400000D01*
X116235714Y-53447619D01*
X116283333Y-53542857D01*
X116283333Y-53685714D01*
X116235714Y-53780952D01*
X116188095Y-53828571D01*
X116092857Y-53876190D01*
X115711904Y-53876190D01*
X116664285Y-53447619D02*
X116711904Y-53400000D01*
X116807142Y-53352380D01*
X117045238Y-53352380D01*
X117140476Y-53400000D01*
X117188095Y-53447619D01*
X117235714Y-53542857D01*
X117235714Y-53638095D01*
X117188095Y-53780952D01*
X116616666Y-54352380D01*
X117235714Y-54352380D01*
%TO.C,J5*%
X147516666Y-84852380D02*
X147516666Y-85566666D01*
X147469047Y-85709523D01*
X147373809Y-85804761D01*
X147230952Y-85852380D01*
X147135714Y-85852380D01*
X148469047Y-84852380D02*
X147992857Y-84852380D01*
X147945238Y-85328571D01*
X147992857Y-85280952D01*
X148088095Y-85233333D01*
X148326190Y-85233333D01*
X148421428Y-85280952D01*
X148469047Y-85328571D01*
X148516666Y-85423809D01*
X148516666Y-85661904D01*
X148469047Y-85757142D01*
X148421428Y-85804761D01*
X148326190Y-85852380D01*
X148088095Y-85852380D01*
X147992857Y-85804761D01*
X147945238Y-85757142D01*
%TO.C,D2*%
X118561904Y-54452380D02*
X118561904Y-53452380D01*
X118800000Y-53452380D01*
X118942857Y-53500000D01*
X119038095Y-53595238D01*
X119085714Y-53690476D01*
X119133333Y-53880952D01*
X119133333Y-54023809D01*
X119085714Y-54214285D01*
X119038095Y-54309523D01*
X118942857Y-54404761D01*
X118800000Y-54452380D01*
X118561904Y-54452380D01*
X119514285Y-53547619D02*
X119561904Y-53500000D01*
X119657142Y-53452380D01*
X119895238Y-53452380D01*
X119990476Y-53500000D01*
X120038095Y-53547619D01*
X120085714Y-53642857D01*
X120085714Y-53738095D01*
X120038095Y-53880952D01*
X119466666Y-54452380D01*
X120085714Y-54452380D01*
%TD*%
M02*
